<?xml version="1.0" encoding="UTF-8" standalone="no"?>
<!DOCTYPE svg PUBLIC "-//W3C//DTD SVG 1.1//EN" "http://www.w3.org/Graphics/SVG/1.1/DTD/svg11.dtd">
<svg xmlns="http://www.w3.org/2000/svg" version="1.1" viewBox="0.00 0.00 303.00 298.00">
<g stroke-width="2.00" fill="none" stroke-linecap="butt">
<path stroke="#93221d" vector-effect="non-scaling-stroke" d="
  M 176.56 18.94
  Q 173.45 19.09 170.48 18.70
  Q 166.33 18.13 164.47 17.95
  C 161.64 17.67 158.91 16.88 156.14 16.87
  Q 150.46 16.87 145.01 16.87
  Q 140.24 16.87 135.52 17.28
  Q 130.84 17.69 125.84 17.90
  Q 125.40 17.91 125.19 18.26
  A 0.70 0.67 11.7 0 1 124.69 18.57
  Q 121.14 18.97 117.66 19.85
  Q 106.00 22.80 95.77 27.07
  C 93.85 27.87 92.25 28.93 90.29 29.71
  Q 88.19 30.55 86.13 31.70
  Q 76.29 37.24 67.03 44.54
  Q 64.10 46.85 61.73 49.73
  Q 59.07 52.97 55.72 55.76
  Q 55.40 56.03 54.99 56.19
  Q 54.65 56.32 54.40 56.57
  Q 51.54 59.53 48.26 63.55
  Q 44.55 68.11 41.61 72.60
  Q 40.02 75.02 38.49 77.39
  Q 36.77 80.03 35.52 83.18
  Q 35.38 83.55 35.10 83.83
  C 34.63 84.32 34.38 84.61 34.19 85.29
  Q 33.80 86.68 32.98 87.85
  Q 31.97 89.28 31.53 91.04
  Q 31.10 92.75 30.13 94.29
  Q 28.57 96.76 27.89 100.00
  Q 26.63 106.00 24.66 112.01
  C 24.23 113.31 24.26 114.65 23.84 116.03
  Q 23.40 117.48 23.18 119.02
  Q 22.10 126.56 21.15 133.81
  C 21.07 134.42 21.23 135.06 21.02 135.65
  Q 20.84 136.16 20.71 136.73
  Q 19.64 141.23 20.39 145.98
  Q 20.49 146.61 20.24 147.20
  Q 19.13 149.88 21.11 152.59
  Q 21.41 152.99 21.39 153.49
  Q 21.13 160.74 22.43 165.99
  Q 23.87 171.85 24.32 175.50
  Q 24.37 175.95 24.62 176.34
  Q 25.17 177.19 25.10 178.22
  Q 25.06 178.77 25.47 179.14
  Q 26.27 179.88 26.52 180.91
  Q 26.90 182.48 27.40 183.99
  Q 32.95 200.78 43.63 215.93
  Q 45.20 218.15 47.39 220.69
  Q 49.35 222.97 51.21 225.32
  Q 52.58 227.04 55.98 230.11
  Q 58.18 232.09 60.70 234.92
  Q 66.61 241.57 74.01 246.60
  Q 78.85 249.90 84.88 252.97
  Q 89.26 255.20 93.47 257.66
  Q 95.19 258.66 97.13 259.26
  C 100.55 260.32 103.72 261.79 107.19 262.95
  Q 115.12 265.60 118.60 266.25
  Q 130.08 268.38 141.24 269.19
  C 148.16 269.69 154.65 268.84 161.39 268.71
  C 164.66 268.64 167.73 267.45 171.00 266.96
  Q 174.63 266.42 178.23 265.45
  Q 190.10 262.29 201.35 257.01
  Q 208.18 253.80 214.19 250.12
  Q 222.62 244.96 231.44 237.25
  Q 239.38 230.30 246.25 221.40
  C 248.50 218.49 250.22 215.37 252.29 212.34
  C 252.82 211.57 253.50 211.01 253.75 210.09
  Q 253.89 209.55 254.36 209.26
  C 255.99 208.24 256.22 206.61 257.14 205.09
  Q 257.33 204.76 257.43 204.38
  Q 257.67 203.39 258.51 202.71
  A 2.04 2.02 -8.0 0 0 259.11 201.92
  Q 261.95 195.53 264.65 188.51
  Q 267.88 180.10 269.71 172.49
  C 270.14 170.71 269.96 168.93 270.46 167.23
  Q 271.47 163.73 271.26 160.15
  Q 271.10 157.41 271.66 154.96
  Q 272.37 151.83 272.10 148.40
  A 1.67 1.66 59.0 0 1 272.36 147.35
  Q 272.68 146.84 272.74 146.24
  Q 273.51 137.89 272.23 128.75
  Q 271.19 121.33 270.09 114.73
  Q 269.63 112.00 268.82 109.19
  Q 268.06 106.58 267.15 104.03
  Q 265.87 100.45 264.59 96.53
  Q 262.94 91.53 259.37 85.15
  Q 259.06 84.59 258.77 84.04
  Q 253.78 74.51 248.64 67.11
  Q 247.36 65.27 245.91 63.70
  C 243.37 60.95 241.31 57.89 238.67 55.28
  Q 231.29 47.95 222.87 41.63
  C 221.06 40.27 219.01 39.45 217.25 38.03
  Q 214.19 35.57 210.36 33.60
  Q 210.23 33.53 210.15 33.41
  Q 210.09 33.30 210.07 33.17
  Q 210.05 33.05 209.94 32.99
  L 195.32 25.14"
/>
<path stroke="#eb938f" vector-effect="non-scaling-stroke" d="
  M 182.17 27.42
  Q 181.92 27.21 181.58 27.13
  Q 177.77 26.29 173.70 24.48
  Q 170.69 23.14 172.30 26.02
  Q 173.26 27.73 173.31 29.91
  Q 173.56 40.29 174.38 50.65
  A 0.87 0.87 0.0 0 0 175.19 51.45
  Q 175.60 51.49 176.02 51.02
  Q 180.47 46.05 185.11 40.95
  A 0.54 0.54 0.0 0 1 185.87 40.92
  Q 186.17 41.19 186.19 41.61
  Q 186.53 48.70 186.63 54.58
  Q 186.66 56.84 188.21 55.19
  Q 192.54 50.58 196.59 45.36
  C 198.53 42.86 200.62 40.66 202.61 38.20
  C 203.13 37.55 203.75 37.28 204.49 36.99
  Q 207.24 35.91 204.41 35.07
  Q 202.44 34.49 200.35 33.49
  A 0.77 0.75 -53.7 0 0 199.48 33.63
  Q 198.48 34.60 200.30 35.72
  Q 201.13 36.23 200.57 37.03
  C 198.65 39.77 195.93 42.23 194.15 45.12
  Q 192.90 47.14 192.71 44.78
  Q 192.26 39.23 192.30 34.43
  Q 192.32 32.26 194.85 33.24
  A 0.38 0.38 0.0 0 0 195.36 32.97
  L 195.45 32.59
  Q 195.61 31.95 194.98 31.75
  L 182.73 27.73
  Q 182.42 27.63 182.17 27.42"
/>
<path stroke="#eb938f" vector-effect="non-scaling-stroke" d="
  M 133.8261 34.9704
  A 11.47 11.47 0.0 0 0 120.8544 25.2309
  L 118.2605 25.6001
  A 11.47 11.47 0.0 0 0 108.5211 38.5718
  L 108.8339 40.7696
  A 11.47 11.47 0.0 0 0 121.8056 50.5091
  L 124.3995 50.1399
  A 11.47 11.47 0.0 0 0 134.1389 37.1682
  L 133.8261 34.9704"
/>
<path stroke="#eb938f" vector-effect="non-scaling-stroke" d="
  M 97.19 47.77
  A 0.50 0.49 -78.3 0 1 96.42 48.28
  L 86.85 41.42
  A 0.56 0.56 0.0 0 1 86.81 40.55
  Q 87.83 39.66 87.77 38.38
  A 0.47 0.47 0.0 0 0 87.05 38.02
  L 67.20 50.95
  Q 66.19 51.60 67.38 51.80
  Q 69.30 52.12 70.89 53.20
  Q 79.91 59.30 88.89 65.67
  A 1.03 1.02 -63.5 0 0 90.46 65.14
  Q 90.58 64.76 90.51 64.37
  Q 89.38 58.11 88.35 51.73
  Q 88.11 50.21 89.35 51.10
  L 99.88 58.58
  Q 101.72 59.89 101.28 57.68
  Q 99.33 47.86 97.27 38.50
  Q 96.59 35.46 97.32 32.57
  A 0.47 0.47 0.0 0 0 96.69 32.02
  Q 93.94 33.16 91.69 35.10
  Q 89.92 36.63 92.25 36.42
  Q 92.79 36.37 93.33 36.24
  Q 94.72 35.89 95.01 37.29
  L 97.19 47.77"
/>
<path stroke="#eb938f" vector-effect="non-scaling-stroke" d="
  M 207.83 66.06
  Q 206.67 65.61 205.38 65.77
  Q 204.06 65.93 205.17 66.66
  L 213.74 72.33
  Q 216.36 74.06 215.20 71.14
  C 214.90 70.39 214.75 69.69 214.91 68.89
  Q 217.05 57.95 219.19 46.15
  A 0.32 0.32 0.0 0 0 218.95 45.78
  Q 218.32 45.64 217.74 45.97
  C 211.07 49.73 204.70 54.08 197.94 57.47
  C 197.02 57.93 196.10 57.92 195.10 57.96
  Q 193.15 58.05 194.74 59.18
  L 200.34 63.17
  Q 201.80 64.21 201.41 62.46
  Q 201.19 61.45 200.21 60.53
  A 0.79 0.79 0.0 0 1 200.10 59.52
  Q 201.19 57.93 203.09 57.36
  Q 203.65 57.19 204.14 57.53
  L 209.10 60.96
  A 0.92 0.91 -75.1 0 1 209.50 61.66
  Q 209.63 63.58 209.01 65.49
  A 0.90 0.90 0.0 0 1 207.83 66.06"
/>
<path stroke="#eb938f" vector-effect="non-scaling-stroke" d="
  M 239.75 142.88
  A 92.76 92.76 0.0 0 0 146.99 50.12
  A 92.76 92.76 0.0 0 0 54.23 142.88
  A 92.76 92.76 0.0 0 0 146.99 235.64
  A 92.76 92.76 0.0 0 0 239.75 142.88"
/>
<path stroke="#eb938f" vector-effect="non-scaling-stroke" d="
  M 234.29 76.68
  Q 238.79 75.99 242.99 75.20
  C 244.01 75.01 244.61 75.37 245.50 75.60
  Q 248.40 76.35 246.56 73.98
  L 243.18 69.64
  Q 242.14 68.31 241.91 69.98
  Q 241.80 70.74 242.09 71.54
  A 1.37 1.37 0.0 0 1 241.05 73.34
  L 233.20 74.80
  Q 232.31 74.96 232.00 74.11
  Q 231.87 73.77 232.00 73.40
  Q 233.49 69.15 235.06 65.44
  A 1.02 1.01 18.7 0 1 236.26 64.85
  Q 236.96 65.03 237.66 64.98
  Q 239.03 64.88 238.10 63.87
  L 231.07 56.12
  Q 230.27 55.23 230.27 56.43
  C 230.28 57.77 230.50 59.05 230.02 60.34
  Q 228.15 65.44 226.05 71.28
  C 225.17 73.70 223.61 74.39 222.04 76.12
  Q 220.08 78.27 217.73 76.15
  Q 217.12 75.60 216.32 75.73
  L 216.01 75.78
  A 0.27 0.26 63.5 0 0 215.87 76.22
  Q 220.60 81.30 224.66 86.32
  A 0.63 0.63 0.0 0 0 225.72 86.20
  L 225.89 85.86
  A 0.84 0.83 35.0 0 0 225.72 84.90
  Q 223.84 83.09 225.73 81.55
  C 227.44 80.16 229.24 77.76 231.39 77.24
  Q 232.73 76.92 234.29 76.68"
/>
<path stroke="#eb938f" vector-effect="non-scaling-stroke" d="
  M 74.32 77.66
  A 1.23 1.23 0.0 0 1 72.85 77.52
  L 59.55 65.43
  A 1.48 1.48 0.0 0 1 59.53 63.26
  C 61.63 61.27 63.17 62.08 65.50 62.68
  Q 68.68 63.51 66.35 61.18
  L 63.05 57.88
  A 1.20 1.19 43.6 0 0 61.32 57.92
  L 48.05 72.62
  A 1.49 1.49 0.0 0 0 48.12 74.68
  Q 49.89 76.40 51.80 77.91
  Q 52.28 78.29 52.88 78.20
  A 0.41 0.40 -13.6 0 0 53.21 77.67
  C 52.17 74.71 50.65 73.35 53.11 70.30
  A 1.28 1.28 0.0 0 1 54.97 70.16
  L 68.34 82.30
  A 1.34 1.34 0.0 0 1 68.69 83.76
  Q 68.47 84.37 68.38 84.98
  Q 67.94 87.87 69.77 85.59
  Q 73.03 81.52 76.75 77.75
  Q 77.16 77.34 77.15 76.80
  Q 77.15 75.95 76.43 76.39
  L 74.32 77.66"
/>
<path stroke="#eb938f" vector-effect="non-scaling-stroke" d="
  M 72.37 235.41
  L 69.82 234.80
  Q 69.54 234.74 69.42 235.00
  L 69.30 235.28
  A 0.62 0.62 0.0 0 0 69.54 236.04
  L 79.41 242.42
  A 0.61 0.61 0.0 0 0 80.32 241.73
  Q 80.02 240.77 79.25 240.08
  A 1.38 1.37 38.3 0 1 79.04 238.30
  Q 80.64 235.94 82.34 233.15
  Q 82.73 232.51 83.38 232.80
  A 1.08 1.08 0.0 0 1 84.01 233.75
  L 84.31 244.86
  A 1.54 1.53 -75.1 0 0 85.02 246.10
  L 90.13 249.35
  Q 92.10 250.60 91.38 248.38
  C 91.10 247.50 90.62 246.80 90.56 245.82
  Q 90.33 241.49 90.22 237.18
  Q 90.18 235.73 91.63 235.90
  Q 96.12 236.44 97.95 233.09
  C 100.27 228.84 97.61 225.02 94.10 222.72
  C 89.77 219.87 84.72 217.21 81.39 213.11
  Q 75.48 205.86 69.57 199.16
  Q 69.18 198.71 68.80 199.17
  Q 67.10 201.22 64.65 202.90
  Q 64.00 203.35 64.20 204.08
  Q 64.39 204.79 65.08 204.51
  L 68.17 203.28
  A 1.74 1.73 53.3 0 1 69.92 203.54
  L 72.07 205.26
  Q 73.14 206.12 72.07 206.97
  C 67.55 210.60 63.03 214.87 58.12 218.56
  Q 57.24 219.22 56.37 218.81
  Q 55.60 218.45 54.87 217.75
  A 0.41 0.41 0.0 0 0 54.31 217.75
  L 54.04 217.98
  A 0.61 0.61 0.0 0 0 53.99 218.83
  L 61.79 227.68
  A 0.66 0.64 57.0 0 0 62.54 227.85
  L 62.80 227.73
  A 0.23 0.22 65.5 0 0 62.91 227.42
  Q 62.03 225.72 62.12 224.28
  A 0.94 0.92 72.3 0 1 62.46 223.60
  L 75.78 212.32
  A 1.70 1.70 0.0 0 1 78.23 212.60
  C 79.29 214.03 79.46 216.28 78.48 217.82
  Q 77.97 218.61 77.84 219.47
  Q 77.58 221.22 78.85 219.99
  Q 80.47 218.40 82.39 217.37
  A 0.95 0.94 -17.3 0 1 83.78 218.10
  C 83.85 218.72 83.72 219.50 83.37 220.02
  Q 78.60 227.07 73.60 234.91
  A 1.15 1.14 -66.9 0 1 72.37 235.41"
/>
<path stroke="#eb938f" vector-effect="non-scaling-stroke" d="
  M 226.52 218.49
  Q 227.19 218.33 227.94 218.41
  Q 233.26 219.03 238.51 219.74
  A 1.97 1.94 -64.5 0 0 240.19 219.13
  L 244.40 214.59
  A 0.62 0.62 0.0 0 0 243.92 213.55
  C 242.53 213.60 241.51 214.12 240.07 213.88
  Q 236.03 213.20 231.81 212.84
  A 0.67 0.67 0.0 0 1 231.22 212.01
  Q 232.89 205.54 227.29 203.23
  C 223.50 201.66 219.22 205.14 217.01 207.77
  Q 213.33 212.14 209.07 216.19
  Q 208.50 216.73 209.28 216.80
  L 210.43 216.91
  A 1.20 1.18 20.9 0 0 211.51 216.44
  Q 212.01 215.76 212.79 215.72
  Q 213.22 215.69 213.52 215.99
  Q 219.54 221.94 226.89 228.46
  C 228.03 229.47 227.24 231.32 226.57 232.36
  A 0.74 0.73 37.0 0 0 226.71 233.31
  L 226.90 233.47
  Q 227.09 233.63 227.24 233.44
  Q 231.15 228.38 235.76 223.99
  A 0.51 0.51 0.0 0 0 235.57 223.13
  L 235.31 223.04
  Q 234.69 222.84 234.23 223.31
  Q 232.27 225.33 230.52 223.39
  Q 228.69 221.34 226.30 219.63
  A 0.64 0.64 0.0 0 1 226.52 218.49"
/>
<path stroke="#eb938f" vector-effect="non-scaling-stroke" d="
  M 185.06 245.03
  Q 189.14 244.17 190.54 248.39
  A 0.37 0.36 82.3 0 0 190.85 248.63
  L 191.15 248.65
  Q 191.53 248.67 191.52 248.29
  Q 191.46 246.62 190.80 244.77
  Q 189.08 239.95 187.32 236.50
  A 0.46 0.46 0.0 0 0 186.76 236.27
  L 186.49 236.36
  A 0.30 0.29 -19.4 0 0 186.31 236.73
  Q 187.62 240.54 184.32 242.94
  A 1.03 1.02 -28.3 0 1 182.76 242.48
  L 180.29 236.04
  A 1.25 1.25 0.0 0 1 181.00 234.44
  C 182.62 233.80 187.06 232.32 188.63 233.79
  Q 189.79 234.88 190.89 236.59
  A 0.18 0.17 46.7 0 0 191.18 236.60
  L 191.51 236.13
  A 1.34 1.33 51.0 0 0 191.64 234.83
  L 189.98 231.03
  Q 189.42 229.77 190.77 229.48
  L 192.73 229.05
  Q 193.91 228.80 194.57 229.81
  L 204.45 245.05
  A 1.46 1.46 0.0 0 1 203.95 247.11
  Q 203.24 247.51 202.80 248.18
  A 0.55 0.54 18.6 0 0 203.22 249.02
  Q 204.04 249.08 204.68 248.64
  Q 212.29 243.49 220.77 238.25
  Q 221.35 237.89 221.06 237.28
  L 217.90 230.73
  A 0.55 0.55 0.0 0 0 216.96 230.64
  C 216.65 231.07 216.54 231.57 216.65 232.09
  C 217.68 237.04 215.10 239.07 211.53 241.35
  A 1.32 1.32 0.0 0 1 209.71 240.95
  L 206.30 235.66
  A 1.18 1.18 0.0 0 1 207.40 233.84
  Q 210.14 234.09 211.36 236.34
  Q 211.69 236.95 212.25 236.53
  L 212.82 236.11
  Q 213.31 235.74 212.93 235.25
  Q 209.75 231.22 207.29 226.43
  A 1.75 1.73 -88.3 0 0 206.62 225.71
  Q 205.13 224.82 204.53 225.66
  Q 204.21 226.10 204.63 226.45
  Q 206.95 228.37 205.36 231.66
  A 1.06 1.05 -44.6 0 1 203.45 231.65
  Q 202.19 228.94 200.29 226.43
  A 1.41 1.41 0.0 0 1 200.68 224.38
  C 204.55 222.01 206.53 221.14 210.20 224.69
  Q 210.66 225.14 210.96 224.57
  Q 211.38 223.77 210.90 223.00
  Q 209.42 220.61 207.76 218.28
  Q 207.27 217.59 206.55 218.04
  Q 201.18 221.39 195.60 225.13
  Q 190.62 228.48 184.30 230.98
  Q 176.51 234.06 170.35 236.33
  Q 169.79 236.53 169.99 237.09
  L 170.10 237.40
  A 0.54 0.54 0.0 0 0 170.71 237.74
  Q 172.21 237.42 173.44 237.70
  A 1.12 1.12 0.0 0 1 174.22 238.36
  L 181.16 255.48
  Q 181.43 256.14 180.89 256.60
  L 178.97 258.22
  A 0.57 0.57 0.0 0 0 179.10 259.18
  Q 179.48 259.35 179.86 259.19
  Q 185.23 256.94 190.72 254.92
  A 0.72 0.71 72.9 0 0 191.16 254.07
  L 191.09 253.80
  Q 191.00 253.43 190.65 253.56
  Q 187.47 254.74 186.52 251.72
  Q 185.67 248.99 184.43 246.28
  A 0.90 0.89 -18.3 0 1 185.06 245.03"
/>
<path stroke="#eb938f" vector-effect="non-scaling-stroke" d="
  M 110.31 255.46
  Q 109.78 255.25 109.23 255.35
  Q 105.91 255.94 109.11 257.03
  Q 114.09 258.74 118.69 260.36
  Q 120.08 260.84 119.33 259.58
  C 118.67 258.46 117.76 257.66 117.64 256.26
  Q 116.64 245.17 115.73 233.34
  A 0.75 0.75 0.0 0 0 114.43 232.89
  Q 108.70 239.10 102.69 245.69
  Q 100.87 247.70 98.39 249.95
  C 97.55 250.72 96.78 250.59 95.81 250.92
  Q 93.70 251.64 95.75 252.53
  Q 98.99 253.93 102.59 254.73
  A 0.50 0.50 0.0 0 0 103.20 254.29
  Q 103.26 253.80 102.80 253.52
  Q 101.83 252.91 100.90 252.38
  A 0.84 0.83 -63.4 0 1 100.55 251.32
  Q 101.36 249.44 103.10 248.35
  Q 103.60 248.04 104.17 248.21
  L 109.93 249.97
  A 1.14 1.13 -85.6 0 1 110.72 250.90
  L 111.23 254.73
  Q 111.39 255.89 110.31 255.46"
/>
<path stroke="#eb938f" vector-effect="non-scaling-stroke" d="
  M 157.66 242.96
  A 2.29 2.28 65.7 0 1 158.84 239.83
  C 162.80 238.22 165.86 240.38 167.50 243.94
  A 1.44 0.79 42.6 0 0 167.59 244.10
  Q 168.23 245.09 168.79 244.60
  A 0.49 0.48 -24.6 0 0 168.95 244.18
  L 168.07 236.72
  A 0.49 0.49 0.0 0 0 167.18 236.49
  C 165.59 238.76 163.48 237.15 161.35 237.22
  Q 159.26 237.28 157.10 237.99
  C 152.92 239.36 151.93 246.72 155.21 249.37
  C 157.72 251.39 161.15 252.58 164.15 253.54
  C 165.86 254.08 167.98 255.75 167.50 257.77
  Q 166.99 259.91 164.55 260.20
  C 161.37 260.58 158.18 259.14 156.91 256.13
  Q 156.42 254.99 155.60 253.98
  Q 154.32 252.41 154.55 254.42
  L 155.52 262.83
  A 0.70 0.70 0.0 0 0 156.66 263.29
  L 157.96 262.22
  Q 158.41 261.85 158.99 261.94
  C 163.62 262.67 167.72 262.77 170.73 258.55
  C 173.37 254.84 171.89 249.90 167.90 248.06
  Q 164.37 246.43 160.18 245.11
  Q 158.46 244.57 157.66 242.96"
/>
<path stroke="#eb938f" vector-effect="non-scaling-stroke" d="
  M 144.55 251.82
  Q 144.32 251.75 144.18 251.56
  Q 139.80 245.44 135.73 238.61
  Q 135.42 238.10 134.83 238.00
  Q 131.03 237.34 126.85 237.23
  Q 124.90 237.18 126.49 238.32
  L 128.47 239.74
  A 1.64 1.64 0.0 0 1 129.15 241.23
  L 127.58 258.95
  A 0.95 0.94 -0.4 0 1 126.73 259.80
  Q 125.72 259.91 124.77 260.23
  Q 122.22 261.10 124.89 261.48
  Q 128.87 262.04 132.87 262.08
  A 0.35 0.35 0.0 0 0 133.19 261.58
  L 132.97 261.12
  A 0.64 0.61 80.2 0 0 132.48 260.76
  Q 131.12 260.59 130.26 259.78
  A 1.29 1.29 0.0 0 1 129.86 258.80
  Q 130.11 251.82 130.95 245.65
  Q 131.23 243.62 132.37 245.32
  L 144.00 262.70
  Q 145.99 265.66 146.24 262.10
  Q 146.83 253.71 147.62 244.18
  Q 147.93 240.53 150.20 240.50
  Q 150.60 240.49 150.79 240.15
  Q 150.88 240.00 150.94 239.84
  Q 151.14 239.28 150.56 239.20
  Q 146.66 238.64 143.29 238.57
  Q 142.60 238.56 142.48 239.23
  A 0.61 0.60 12.9 0 0 142.91 239.91
  Q 144.31 240.30 145.38 241.09
  Q 145.84 241.43 145.80 242.01
  L 145.14 251.41
  A 0.46 0.46 0.0 0 1 144.55 251.82"
/>
<path stroke="#eb938f" vector-effect="non-scaling-stroke" d="
  M 182.45 28.09
  C 180.18 28.38 179.40 29.74 179.61 31.82
  Q 180.03 36.07 180.02 39.84
  Q 180.01 43.98 182.41 40.61
  Q 183.50 39.09 185.35 37.54
  Q 185.76 37.19 185.77 36.65
  Q 185.83 34.76 185.82 32.80
  C 185.81 30.67 184.47 30.11 183.48 28.58
  Q 183.12 28.01 182.45 28.09"
/>
<path stroke="#eb938f" vector-effect="non-scaling-stroke" d="
  M 117.61 44.77
  Q 119.03 47.89 121.93 48.24
  C 124.31 48.53 126.96 47.15 127.37 44.60
  Q 128.24 39.15 125.71 32.22
  C 124.06 27.68 120.02 25.46 116.06 29.31
  Q 115.68 29.68 115.54 30.19
  Q 113.89 36.60 117.61 44.77"
/>
<path stroke="#eb938f" vector-effect="non-scaling-stroke" d="
  M 76.51 46.25
  Q 74.50 48.00 76.71 49.49
  Q 80.97 52.37 85.44 55.59
  Q 85.78 55.83 86.12 55.83
  A 0.63 0.63 0.0 0 0 86.74 55.07
  L 85.44 48.96
  Q 85.33 48.44 84.96 48.07
  Q 83.46 46.58 81.31 45.39
  Q 78.98 44.10 76.97 45.85
  Q 76.73 46.06 76.51 46.25"
/>
<path stroke="#eb938f" vector-effect="non-scaling-stroke" d="
  M 206.16 55.23
  A 0.60 0.60 0.0 0 0 206.13 56.25
  L 209.48 58.58
  A 0.60 0.60 0.0 0 0 210.42 58.19
  L 211.26 53.40
  A 0.60 0.60 0.0 0 0 210.36 52.78
  L 206.16 55.23"
/>
<path stroke="#80c9a1" vector-effect="non-scaling-stroke" d="
  M 199.82 119.28
  L 233.26 139.51
  A 0.59 0.59 0.0 0 0 234.16 138.98
  C 233.14 111.96 221.72 87.58 199.51 72.02
  C 171.95 52.70 135.53 49.94 105.61 65.14
  Q 77.97 79.17 65.34 111.25
  Q 64.36 113.73 64.26 115.95
  Q 64.24 116.47 64.69 116.74
  L 92.51 133.00
  A 3.75 3.73 -39.8 0 0 95.67 133.28
  Q 104.67 129.98 113.41 126.64
  Q 115.37 125.89 116.35 124.19
  Q 124.70 109.79 140.91 107.61
  C 156.90 105.47 171.85 112.70 179.06 127.31
  A 0.69 0.68 -25.4 0 0 179.95 127.62
  L 198.61 119.20
  Q 199.23 118.92 199.82 119.28"
/>
<path stroke="#908d8c" vector-effect="non-scaling-stroke" d="
  M 177.56 142.85
  A 30.56 30.56 0.0 0 0 147.00 112.29
  A 30.56 30.56 0.0 0 0 116.44 142.85
  A 30.56 30.56 0.0 0 0 147.00 173.41
  A 30.56 30.56 0.0 0 0 177.56 142.85"
/>
<path stroke="#908d8c" vector-effect="non-scaling-stroke" d="
  M 77.63 143.05
  Q 78.43 144.00 77.95 145.21
  Q 77.82 145.56 78.02 145.88
  Q 78.38 146.46 79.16 146.38
  Q 79.82 146.30 79.78 145.64
  Q 79.61 142.56 79.50 139.04
  Q 79.49 138.50 79.09 138.17
  Q 78.52 137.69 77.75 138.12
  Q 77.24 138.41 77.19 138.99
  L 76.95 141.46
  Q 76.90 142.03 76.33 141.98
  L 76.06 141.95
  A 1.16 1.14 -4.6 0 1 75.04 141.09
  L 74.39 138.54
  A 0.90 0.88 0.1 0 0 73.74 137.90
  Q 72.78 137.66 72.38 138.25
  Q 72.22 138.49 72.21 138.79
  Q 72.10 142.56 71.98 145.98
  A 0.71 0.70 88.2 0 0 72.75 146.71
  Q 73.99 146.57 73.68 145.35
  Q 73.27 143.79 74.16 142.53
  Q 74.61 141.91 74.73 142.67
  Q 74.90 143.73 74.70 144.79
  Q 74.38 146.53 76.24 146.35
  Q 77.21 146.26 76.89 145.34
  Q 76.50 144.24 76.97 143.15
  Q 77.22 142.57 77.63 143.05"
/>
<path stroke="#908d8c" vector-effect="non-scaling-stroke" d="
  M 91.35 140.12
  L 89.66 138.15
  A 0.51 0.51 0.0 0 0 89.04 138.02
  L 88.75 138.17
  Q 88.37 138.36 88.58 138.72
  Q 89.11 139.64 89.71 140.56
  C 90.87 142.34 89.81 144.54 88.22 145.61
  Q 87.81 145.89 87.32 145.76
  Q 85.81 145.35 84.20 145.52
  A 0.81 0.81 0.0 0 1 83.35 144.98
  Q 83.17 144.46 83.17 143.86
  Q 83.17 143.12 83.91 143.09
  Q 84.68 143.05 85.50 143.33
  A 0.92 0.91 -83.6 0 0 86.71 142.36
  Q 86.65 141.85 86.20 141.61
  Q 85.79 141.39 85.36 141.55
  Q 84.73 141.78 84.02 141.80
  Q 83.43 141.82 83.14 141.29
  Q 82.82 140.69 83.12 140.06
  Q 83.44 139.40 84.17 139.42
  L 85.98 139.47
  Q 86.52 139.49 86.73 138.99
  L 86.85 138.72
  Q 87.06 138.23 86.54 138.13
  Q 84.48 137.75 82.10 138.14
  A 0.73 0.73 0.0 0 0 81.49 138.87
  L 81.54 146.11
  Q 81.55 146.63 82.06 146.72
  Q 84.80 147.17 87.40 146.38
  A 1.06 1.05 50.3 0 1 88.21 146.46
  C 89.07 146.91 89.95 146.73 90.38 145.80
  Q 90.67 145.19 91.04 144.62
  Q 91.35 144.15 91.70 144.59
  L 93.51 146.85
  A 0.53 0.53 0.0 0 0 94.24 146.94
  L 94.54 146.71
  Q 94.73 146.57 94.65 146.35
  C 93.86 144.14 91.23 142.66 93.77 140.10
  Q 94.52 139.34 94.22 138.32
  A 0.45 0.45 0.0 0 0 93.57 138.06
  Q 92.57 138.61 92.34 139.85
  A 0.57 0.57 0.0 0 1 91.35 140.12"
/>
<path stroke="#908d8c" vector-effect="non-scaling-stroke" d="
  M 101.94 145.47
  C 100.00 144.61 100.09 141.93 100.84 140.32
  A 1.51 1.51 0.0 0 1 103.02 139.69
  L 104.44 140.60
  Q 104.82 140.84 105.08 140.48
  L 105.40 140.05
  Q 105.45 139.99 105.41 139.93
  Q 104.13 137.45 101.32 138.15
  C 97.92 138.98 97.78 146.36 101.81 146.82
  Q 104.77 147.16 105.10 144.86
  Q 105.32 143.32 104.07 144.25
  Q 103.44 144.71 102.95 145.25
  A 0.88 0.87 -56.9 0 1 101.94 145.47"
/>
<path stroke="#908d8c" vector-effect="non-scaling-stroke" d="
  M 114.2158 141.4825
  A 3.25 3.25 0.0 0 0 111.1106 138.0938
  L 110.2115 138.0545
  A 3.25 3.25 0.0 0 0 106.8228 141.1597
  L 106.7242 143.4175
  A 3.25 3.25 0.0 0 0 109.8294 146.8062
  L 110.7285 146.8455
  A 3.25 3.25 0.0 0 0 114.1172 143.7403
  L 114.2158 141.4825"
/>
<path stroke="#908d8c" vector-effect="non-scaling-stroke" d="
  M 97.4738 138.9487
  A 0.67 0.67 0.0 0 0 96.8027 138.2798
  L 96.6227 138.2802
  A 0.67 0.67 0.0 0 0 95.9538 138.9513
  L 95.9662 146.0313
  A 0.67 0.67 0.0 0 0 96.6373 146.7002
  L 96.8173 146.6998
  A 0.67 0.67 0.0 0 0 97.4862 146.0287
  L 97.4738 138.9487"
/>
<path stroke="#908d8c" vector-effect="non-scaling-stroke" d="
  M 203.43 146.32
  A 1.34 1.32 -78.1 0 1 202.68 145.15
  L 202.58 139.66
  A 0.58 0.58 0.0 0 0 201.91 139.09
  L 201.60 139.14
  A 0.40 0.40 0.0 0 0 201.26 139.48
  Q 200.81 142.90 201.35 146.03
  A 2.30 2.29 -88.5 0 0 203.10 147.88
  Q 209.04 149.21 207.16 139.44
  A 0.34 0.34 0.0 0 0 206.68 139.20
  L 206.38 139.35
  Q 205.71 139.67 205.78 140.41
  Q 206.51 147.80 203.43 146.32"
/>
<path stroke="#908d8c" vector-effect="non-scaling-stroke" d="
  M 211.62 142.62
  C 210.91 142.43 210.54 141.65 210.82 140.98
  Q 211.12 140.28 211.85 140.34
  Q 213.01 140.43 213.60 141.55
  Q 213.83 141.99 214.18 141.65
  L 214.42 141.42
  A 0.90 0.90 0.0 0 0 214.56 140.28
  C 213.36 138.41 210.12 138.41 209.34 140.72
  C 209.02 141.68 209.62 142.71 209.84 143.66
  Q 209.99 144.30 210.62 144.11
  Q 212.10 143.66 213.08 144.79
  A 1.04 1.04 0.0 0 1 212.42 146.50
  Q 211.06 146.68 210.03 145.45
  A 0.45 0.45 0.0 0 0 209.28 145.54
  L 209.13 145.82
  A 0.95 0.94 34.5 0 0 209.34 146.93
  C 211.61 149.03 215.67 148.02 214.63 144.20
  A 1.90 1.90 0.0 0 0 212.82 142.79
  Q 212.21 142.78 211.62 142.62"
/>
<path stroke="#908d8c" vector-effect="non-scaling-stroke" d="
  M 219.62 145.53
  Q 221.11 145.67 222.05 147.68
  A 0.38 0.37 63.5 0 0 222.57 147.86
  L 222.83 147.72
  Q 223.44 147.39 223.21 146.74
  Q 222.04 143.42 220.88 140.67
  Q 219.43 137.22 218.18 140.74
  Q 217.09 143.80 215.90 146.64
  Q 215.77 146.94 215.88 147.25
  Q 215.98 147.54 216.24 147.65
  Q 216.75 147.87 217.14 147.47
  L 218.68 145.88
  A 1.18 1.16 -65.0 0 1 219.62 145.53"
/>
<path stroke="#958bb7" vector-effect="non-scaling-stroke" d="
  M 59.79 158.95
  C 67.44 191.68 89.13 218.32 121.58 227.91
  Q 135.48 232.02 147.03 231.65
  Q 187.40 230.34 213.91 199.55
  Q 222.94 189.07 228.74 176.55
  A 0.73 0.73 0.0 0 0 228.43 175.60
  L 196.75 157.77
  A 2.02 2.02 0.0 0 0 195.05 157.64
  Q 185.89 161.08 177.06 164.74
  C 175.84 165.25 174.53 165.98 173.63 166.97
  C 158.45 183.94 132.03 182.46 118.76 164.03
  A 1.37 1.36 61.5 0 0 117.15 163.55
  L 92.97 172.93
  A 3.72 3.69 -42.1 0 1 89.98 172.79
  L 60.82 158.14
  Q 59.44 157.45 59.79 158.95"
/>
<path stroke="#908d8c" vector-effect="non-scaling-stroke" d="
  M 137.24 148.04
  A 0.59 0.59 0.0 0 1 136.64 147.46
  L 136.43 135.44
  A 0.59 0.59 0.0 0 0 135.72 134.87
  L 133.91 135.26
  A 0.59 0.59 0.0 0 0 133.44 135.84
  L 133.49 150.10
  A 0.59 0.59 0.0 0 0 134.09 150.69
  L 143.92 150.57
  A 0.59 0.59 0.0 0 0 144.50 149.91
  L 144.34 148.47
  A 0.59 0.59 0.0 0 0 143.74 147.95
  L 137.24 148.04"
/>
<path stroke="#908d8c" vector-effect="non-scaling-stroke" d="
  M 150.07 140.43
  L 152.33 149.74
  A 1.48 1.48 0.0 0 0 153.67 150.86
  Q 155.32 150.95 155.61 149.85
  Q 156.68 145.73 157.89 141.41
  Q 158.82 138.08 158.75 141.54
  L 158.61 149.73
  Q 158.58 150.88 159.73 150.75
  L 160.40 150.67
  Q 161.52 150.54 161.46 149.42
  Q 161.11 142.81 161.56 135.72
  Q 161.61 134.96 160.84 134.92
  L 157.78 134.79
  Q 156.69 134.74 156.43 135.81
  L 154.66 143.25
  Q 154.04 145.84 153.39 143.26
  L 151.56 135.95
  Q 151.37 135.18 150.60 135.00
  Q 148.96 134.62 147.16 134.99
  A 0.83 0.82 -6.4 0 0 146.50 135.81
  L 146.61 149.66
  Q 146.62 150.70 147.66 150.73
  L 148.31 150.74
  Q 149.31 150.77 149.33 149.78
  Q 149.47 144.91 149.32 140.24
  Q 149.32 140.18 149.38 140.17
  L 149.64 140.14
  Q 149.98 140.09 150.07 140.43"
/>
<path stroke="#908d8c" vector-effect="non-scaling-stroke" d="
  M 130.9140 140.0332
  A 0.97 0.97 0.0 0 0 129.9306 139.0769
  L 120.8715 139.2034
  A 0.97 0.97 0.0 0 0 119.9151 140.1868
  L 119.9260 140.9668
  A 0.97 0.97 0.0 0 0 120.9094 141.9231
  L 129.9685 141.7966
  A 0.97 0.97 0.0 0 0 130.9249 140.8132
  L 130.9140 140.0332"
/>
<path stroke="#908d8c" vector-effect="non-scaling-stroke" d="
  M 173.99 141.73
  A 0.92 0.92 0.0 0 0 174.77 140.36
  L 174.34 139.62
  A 0.92 0.92 0.0 0 0 173.55 139.15
  L 164.90 139.05
  A 0.92 0.92 0.0 0 0 163.98 139.80
  L 163.78 140.90
  A 0.92 0.92 0.0 0 0 164.71 141.99
  L 173.99 141.73"
/>
<path stroke="#908d8c" vector-effect="non-scaling-stroke" d="
  M 130.93 144.85
  A 0.87 0.87 0.0 0 0 130.06 143.98
  L 120.80 143.98
  A 0.87 0.87 0.0 0 0 119.93 144.85
  L 119.93 145.67
  A 0.87 0.87 0.0 0 0 120.80 146.54
  L 130.06 146.54
  A 0.87 0.87 0.0 0 0 130.93 145.67
  L 130.93 144.85"
/>
<path stroke="#908d8c" vector-effect="non-scaling-stroke" d="
  M 174.8175 144.9926
  A 1.07 1.07 0.0 0 0 173.7364 143.9339
  L 164.9168 144.0263
  A 1.07 1.07 0.0 0 0 163.8581 145.1074
  L 163.8625 145.5274
  A 1.07 1.07 0.0 0 0 164.9436 146.5861
  L 173.7632 146.4937
  A 1.07 1.07 0.0 0 0 174.8219 145.4126
  L 174.8175 144.9926"
/>
<path stroke="#908d8c" vector-effect="non-scaling-stroke" d="
  M 110.3416 145.5369
  A 3.05 2.11 92.6 0 0 112.5878 142.5857
  A 3.05 2.11 92.6 0 0 110.6184 139.4431
  A 3.05 2.11 92.6 0 0 108.3722 142.3943
  A 3.05 2.11 92.6 0 0 110.3416 145.5369"
/>
<path stroke="#908d8c" vector-effect="non-scaling-stroke" d="
  M 218.72 143.90
  A 0.55 0.55 0.0 0 0 219.04 144.49
  Q 219.53 144.70 220.07 144.47
  A 0.74 0.74 0.0 0 0 220.52 143.72
  Q 220.46 143.05 220.01 142.53
  A 0.53 0.52 38.9 0 0 219.16 142.62
  Q 218.84 143.20 218.72 143.90"
/>
<path stroke="#eb938f" vector-effect="non-scaling-stroke" d="
  M 88.73 223.27
  L 84.94 228.99
  A 1.43 1.43 0.0 0 0 85.34 230.97
  L 85.82 231.29
  A 4.39 3.90 33.6 0 0 91.63 230.47
  L 92.70 228.87
  A 4.39 3.90 33.6 0 0 91.20 223.19
  L 90.72 222.87
  A 1.43 1.43 0.0 0 0 88.73 223.27"
/>
<path stroke="#eb938f" vector-effect="non-scaling-stroke" d="
  M 217.71 211.31
  L 223.77 216.81
  A 0.80 0.80 0.0 0 0 224.90 216.75
  L 225.53 216.06
  A 4.61 4.00 -47.8 0 0 225.66 209.96
  L 224.34 208.76
  A 4.61 4.00 -47.8 0 0 218.28 209.49
  L 217.66 210.18
  A 0.80 0.80 0.0 0 0 217.71 211.31"
/>
<path stroke="#eb938f" vector-effect="non-scaling-stroke" d="
  M 105.51 245.55
  A 0.61 0.61 0.0 0 0 105.75 246.55
  L 109.62 247.92
  A 0.61 0.61 0.0 0 0 110.43 247.31
  L 110.06 242.24
  A 0.61 0.61 0.0 0 0 109.00 241.86
  L 105.51 245.55"
/>
</g>
<path fill="#4e1e1b" fill-opacity="0.996" d="
  M 176.56 18.94
  Q 173.45 19.09 170.48 18.70
  Q 166.33 18.13 164.47 17.95
  C 161.64 17.67 158.91 16.88 156.14 16.87
  Q 150.46 16.87 145.01 16.87
  Q 140.24 16.87 135.52 17.28
  Q 130.84 17.69 125.84 17.90
  Q 125.40 17.91 125.19 18.26
  A 0.70 0.67 11.7 0 1 124.69 18.57
  Q 121.14 18.97 117.66 19.85
  Q 106.00 22.80 95.77 27.07
  C 93.85 27.87 92.25 28.93 90.29 29.71
  Q 88.19 30.55 86.13 31.70
  Q 76.29 37.24 67.03 44.54
  Q 64.10 46.85 61.73 49.73
  Q 59.07 52.97 55.72 55.76
  Q 55.40 56.03 54.99 56.19
  Q 54.65 56.32 54.40 56.57
  Q 51.54 59.53 48.26 63.55
  Q 44.55 68.11 41.61 72.60
  Q 40.02 75.02 38.49 77.39
  Q 36.77 80.03 35.52 83.18
  Q 35.38 83.55 35.10 83.83
  C 34.63 84.32 34.38 84.61 34.19 85.29
  Q 33.80 86.68 32.98 87.85
  Q 31.97 89.28 31.53 91.04
  Q 31.10 92.75 30.13 94.29
  Q 28.57 96.76 27.89 100.00
  Q 26.63 106.00 24.66 112.01
  C 24.23 113.31 24.26 114.65 23.84 116.03
  Q 23.40 117.48 23.18 119.02
  Q 22.10 126.56 21.15 133.81
  C 21.07 134.42 21.23 135.06 21.02 135.65
  Q 20.84 136.16 20.71 136.73
  Q 19.64 141.23 20.39 145.98
  Q 20.49 146.61 20.24 147.20
  Q 19.13 149.88 21.11 152.59
  Q 21.41 152.99 21.39 153.49
  Q 21.13 160.74 22.43 165.99
  Q 23.87 171.85 24.32 175.50
  Q 24.37 175.95 24.62 176.34
  Q 25.17 177.19 25.10 178.22
  Q 25.06 178.77 25.47 179.14
  Q 26.27 179.88 26.52 180.91
  Q 26.90 182.48 27.40 183.99
  Q 32.95 200.78 43.63 215.93
  Q 45.20 218.15 47.39 220.69
  Q 49.35 222.97 51.21 225.32
  Q 52.58 227.04 55.98 230.11
  Q 58.18 232.09 60.70 234.92
  Q 66.61 241.57 74.01 246.60
  Q 78.85 249.90 84.88 252.97
  Q 89.26 255.20 93.47 257.66
  Q 95.19 258.66 97.13 259.26
  C 100.55 260.32 103.72 261.79 107.19 262.95
  Q 115.12 265.60 118.60 266.25
  Q 130.08 268.38 141.24 269.19
  C 148.16 269.69 154.65 268.84 161.39 268.71
  C 164.66 268.64 167.73 267.45 171.00 266.96
  Q 174.63 266.42 178.23 265.45
  Q 190.10 262.29 201.35 257.01
  Q 208.18 253.80 214.19 250.12
  Q 222.62 244.96 231.44 237.25
  Q 239.38 230.30 246.25 221.40
  C 248.50 218.49 250.22 215.37 252.29 212.34
  C 252.82 211.57 253.50 211.01 253.75 210.09
  Q 253.89 209.55 254.36 209.26
  C 255.99 208.24 256.22 206.61 257.14 205.09
  Q 257.33 204.76 257.43 204.38
  Q 257.67 203.39 258.51 202.71
  A 2.04 2.02 -8.0 0 0 259.11 201.92
  Q 261.95 195.53 264.65 188.51
  Q 267.88 180.10 269.71 172.49
  C 270.14 170.71 269.96 168.93 270.46 167.23
  Q 271.47 163.73 271.26 160.15
  Q 271.10 157.41 271.66 154.96
  Q 272.37 151.83 272.10 148.40
  A 1.67 1.66 59.0 0 1 272.36 147.35
  Q 272.68 146.84 272.74 146.24
  Q 273.51 137.89 272.23 128.75
  Q 271.19 121.33 270.09 114.73
  Q 269.63 112.00 268.82 109.19
  Q 268.06 106.58 267.15 104.03
  Q 265.87 100.45 264.59 96.53
  Q 262.94 91.53 259.37 85.15
  Q 259.06 84.59 258.77 84.04
  Q 253.78 74.51 248.64 67.11
  Q 247.36 65.27 245.91 63.70
  C 243.37 60.95 241.31 57.89 238.67 55.28
  Q 231.29 47.95 222.87 41.63
  C 221.06 40.27 219.01 39.45 217.25 38.03
  Q 214.19 35.57 210.36 33.60
  Q 210.23 33.53 210.15 33.41
  Q 210.09 33.30 210.07 33.17
  Q 210.05 33.05 209.94 32.99
  L 195.32 25.14
  Q 208.78 30.48 218.47 36.83
  Q 227.56 42.78 237.61 52.50
  Q 244.18 58.85 250.44 67.79
  Q 257.31 77.62 262.28 86.56
  Q 265.20 91.80 266.78 98.76
  C 267.61 102.43 269.18 105.59 270.41 109.05
  Q 272.60 115.23 273.00 122.93
  C 273.14 125.85 274.10 128.54 274.26 131.43
  Q 274.78 140.84 274.19 150.55
  C 273.98 153.97 273.17 157.27 272.95 160.69
  Q 272.82 162.72 272.47 164.80
  C 271.74 169.18 271.27 173.53 270.01 177.84
  Q 268.24 183.89 266.39 189.38
  Q 264.89 193.85 262.20 199.04
  C 259.22 204.77 255.55 209.87 252.29 215.34
  Q 249.53 219.96 245.53 224.59
  C 239.29 231.79 232.90 239.29 224.86 244.62
  C 221.27 247.01 217.95 249.80 214.33 252.10
  Q 202.51 259.63 189.08 263.66
  C 183.46 265.35 176.31 267.76 169.79 269.11
  Q 166.16 269.85 158.92 270.06
  Q 153.46 270.22 148.19 270.72
  Q 143.63 271.15 139.39 270.55
  C 133.48 269.72 127.39 270.04 121.54 268.82
  Q 111.05 266.63 100.76 262.55
  Q 96.32 260.79 92.64 258.82
  C 89.00 256.87 85.23 255.28 81.77 253.09
  C 76.72 249.89 71.35 246.93 66.69 243.17
  Q 55.04 233.76 45.27 221.62
  Q 41.93 217.47 39.13 212.53
  Q 36.36 207.68 33.66 203.06
  Q 28.91 194.95 25.98 185.82
  Q 18.86 163.63 19.16 139.89
  Q 19.26 131.50 20.58 124.77
  C 21.02 122.55 20.82 120.30 21.75 118.19
  C 22.25 117.06 21.92 115.85 22.24 114.58
  Q 26.14 99.03 29.20 92.78
  Q 30.50 90.14 31.35 88.01
  Q 32.26 85.73 33.52 83.49
  Q 39.68 72.58 41.85 69.79
  Q 47.69 62.25 53.66 54.94
  Q 55.40 52.80 57.46 50.95
  Q 69.40 40.23 84.21 31.62
  C 86.73 30.16 88.98 28.39 91.59 27.16
  Q 102.07 22.20 116.56 18.57
  Q 118.69 18.03 120.81 17.93
  Q 121.32 17.91 121.79 17.70
  C 124.15 16.66 126.61 17.17 129.16 16.68
  C 130.70 16.38 132.28 16.04 133.83 16.03
  Q 146.21 15.97 158.92 15.98
  C 161.99 15.99 164.69 17.04 167.71 17.01
  Q 169.97 16.98 172.21 17.60
  Q 174.30 18.18 176.56 18.94
  Z"
/>
<path fill="#d7261e" d="
  M 176.56 18.94
  Q 186.31 20.51 195.32 25.14
  L 209.94 32.99
  Q 210.05 33.05 210.07 33.17
  Q 210.09 33.30 210.15 33.41
  Q 210.23 33.53 210.36 33.60
  Q 214.19 35.57 217.25 38.03
  C 219.01 39.45 221.06 40.27 222.87 41.63
  Q 231.29 47.95 238.67 55.28
  C 241.31 57.89 243.37 60.95 245.91 63.70
  Q 247.36 65.27 248.64 67.11
  Q 253.78 74.51 258.77 84.04
  Q 259.06 84.59 259.37 85.15
  Q 262.94 91.53 264.59 96.53
  Q 265.87 100.45 267.15 104.03
  Q 268.06 106.58 268.82 109.19
  Q 269.63 112.00 270.09 114.73
  Q 271.19 121.33 272.23 128.75
  Q 273.51 137.89 272.74 146.24
  Q 272.68 146.84 272.36 147.35
  A 1.67 1.66 59.0 0 0 272.10 148.40
  Q 272.37 151.83 271.66 154.96
  Q 271.10 157.41 271.26 160.15
  Q 271.47 163.73 270.46 167.23
  C 269.96 168.93 270.14 170.71 269.71 172.49
  Q 267.88 180.10 264.65 188.51
  Q 261.95 195.53 259.11 201.92
  A 2.04 2.02 -8.0 0 1 258.51 202.71
  Q 257.67 203.39 257.43 204.38
  Q 257.33 204.76 257.14 205.09
  C 256.22 206.61 255.99 208.24 254.36 209.26
  Q 253.89 209.55 253.75 210.09
  C 253.50 211.01 252.82 211.57 252.29 212.34
  C 250.22 215.37 248.50 218.49 246.25 221.40
  Q 239.38 230.30 231.44 237.25
  Q 222.62 244.96 214.19 250.12
  Q 208.18 253.80 201.35 257.01
  Q 190.10 262.29 178.23 265.45
  Q 174.63 266.42 171.00 266.96
  C 167.73 267.45 164.66 268.64 161.39 268.71
  C 154.65 268.84 148.16 269.69 141.24 269.19
  Q 130.08 268.38 118.60 266.25
  Q 115.12 265.60 107.19 262.95
  C 103.72 261.79 100.55 260.32 97.13 259.26
  Q 95.19 258.66 93.47 257.66
  Q 89.26 255.20 84.88 252.97
  Q 78.85 249.90 74.01 246.60
  Q 66.61 241.57 60.70 234.92
  Q 58.18 232.09 55.98 230.11
  Q 52.58 227.04 51.21 225.32
  Q 49.35 222.97 47.39 220.69
  Q 45.20 218.15 43.63 215.93
  Q 32.95 200.78 27.40 183.99
  Q 26.90 182.48 26.52 180.91
  Q 26.27 179.88 25.47 179.14
  Q 25.06 178.77 25.10 178.22
  Q 25.17 177.19 24.62 176.34
  Q 24.37 175.95 24.32 175.50
  Q 23.87 171.85 22.43 165.99
  Q 21.13 160.74 21.39 153.49
  Q 21.41 152.99 21.11 152.59
  Q 19.13 149.88 20.24 147.20
  Q 20.49 146.61 20.39 145.98
  Q 19.64 141.23 20.71 136.73
  Q 20.84 136.16 21.02 135.65
  C 21.23 135.06 21.07 134.42 21.15 133.81
  Q 22.10 126.56 23.18 119.02
  Q 23.40 117.48 23.84 116.03
  C 24.26 114.65 24.23 113.31 24.66 112.01
  Q 26.63 106.00 27.89 100.00
  Q 28.57 96.76 30.13 94.29
  Q 31.10 92.75 31.53 91.04
  Q 31.97 89.28 32.98 87.85
  Q 33.80 86.68 34.19 85.29
  C 34.38 84.61 34.63 84.32 35.10 83.83
  Q 35.38 83.55 35.52 83.18
  Q 36.77 80.03 38.49 77.39
  Q 40.02 75.02 41.61 72.60
  Q 44.55 68.11 48.26 63.55
  Q 51.54 59.53 54.40 56.57
  Q 54.65 56.32 54.99 56.19
  Q 55.40 56.03 55.72 55.76
  Q 59.07 52.97 61.73 49.73
  Q 64.10 46.85 67.03 44.54
  Q 76.29 37.24 86.13 31.70
  Q 88.19 30.55 90.29 29.71
  C 92.25 28.93 93.85 27.87 95.77 27.07
  Q 106.00 22.80 117.66 19.85
  Q 121.14 18.97 124.69 18.57
  A 0.70 0.67 11.7 0 0 125.19 18.26
  Q 125.40 17.91 125.84 17.90
  Q 130.84 17.69 135.52 17.28
  Q 140.24 16.87 145.01 16.87
  Q 150.46 16.87 156.14 16.87
  C 158.91 16.88 161.64 17.67 164.47 17.95
  Q 166.33 18.13 170.48 18.70
  Q 173.45 19.09 176.56 18.94
  Z
  M 182.17 27.42
  Q 181.92 27.21 181.58 27.13
  Q 177.77 26.29 173.70 24.48
  Q 170.69 23.14 172.30 26.02
  Q 173.26 27.73 173.31 29.91
  Q 173.56 40.29 174.38 50.65
  A 0.87 0.87 0.0 0 0 175.19 51.45
  Q 175.60 51.49 176.02 51.02
  Q 180.47 46.05 185.11 40.95
  A 0.54 0.54 0.0 0 1 185.87 40.92
  Q 186.17 41.19 186.19 41.61
  Q 186.53 48.70 186.63 54.58
  Q 186.66 56.84 188.21 55.19
  Q 192.54 50.58 196.59 45.36
  C 198.53 42.86 200.62 40.66 202.61 38.20
  C 203.13 37.55 203.75 37.28 204.49 36.99
  Q 207.24 35.91 204.41 35.07
  Q 202.44 34.49 200.35 33.49
  A 0.77 0.75 -53.7 0 0 199.48 33.63
  Q 198.48 34.60 200.30 35.72
  Q 201.13 36.23 200.57 37.03
  C 198.65 39.77 195.93 42.23 194.15 45.12
  Q 192.90 47.14 192.71 44.78
  Q 192.26 39.23 192.30 34.43
  Q 192.32 32.26 194.85 33.24
  A 0.38 0.38 0.0 0 0 195.36 32.97
  L 195.45 32.59
  Q 195.61 31.95 194.98 31.75
  L 182.73 27.73
  Q 182.42 27.63 182.17 27.42
  Z
  M 133.8261 34.9704
  A 11.47 11.47 0.0 0 0 120.8544 25.2309
  L 118.2605 25.6001
  A 11.47 11.47 0.0 0 0 108.5211 38.5718
  L 108.8339 40.7696
  A 11.47 11.47 0.0 0 0 121.8056 50.5091
  L 124.3995 50.1399
  A 11.47 11.47 0.0 0 0 134.1389 37.1682
  L 133.8261 34.9704
  Z
  M 97.19 47.77
  A 0.50 0.49 -78.3 0 1 96.42 48.28
  L 86.85 41.42
  A 0.56 0.56 0.0 0 1 86.81 40.55
  Q 87.83 39.66 87.77 38.38
  A 0.47 0.47 0.0 0 0 87.05 38.02
  L 67.20 50.95
  Q 66.19 51.60 67.38 51.80
  Q 69.30 52.12 70.89 53.20
  Q 79.91 59.30 88.89 65.67
  A 1.03 1.02 -63.5 0 0 90.46 65.14
  Q 90.58 64.76 90.51 64.37
  Q 89.38 58.11 88.35 51.73
  Q 88.11 50.21 89.35 51.10
  L 99.88 58.58
  Q 101.72 59.89 101.28 57.68
  Q 99.33 47.86 97.27 38.50
  Q 96.59 35.46 97.32 32.57
  A 0.47 0.47 0.0 0 0 96.69 32.02
  Q 93.94 33.16 91.69 35.10
  Q 89.92 36.63 92.25 36.42
  Q 92.79 36.37 93.33 36.24
  Q 94.72 35.89 95.01 37.29
  L 97.19 47.77
  Z
  M 207.83 66.06
  Q 206.67 65.61 205.38 65.77
  Q 204.06 65.93 205.17 66.66
  L 213.74 72.33
  Q 216.36 74.06 215.20 71.14
  C 214.90 70.39 214.75 69.69 214.91 68.89
  Q 217.05 57.95 219.19 46.15
  A 0.32 0.32 0.0 0 0 218.95 45.78
  Q 218.32 45.64 217.74 45.97
  C 211.07 49.73 204.70 54.08 197.94 57.47
  C 197.02 57.93 196.10 57.92 195.10 57.96
  Q 193.15 58.05 194.74 59.18
  L 200.34 63.17
  Q 201.80 64.21 201.41 62.46
  Q 201.19 61.45 200.21 60.53
  A 0.79 0.79 0.0 0 1 200.10 59.52
  Q 201.19 57.93 203.09 57.36
  Q 203.65 57.19 204.14 57.53
  L 209.10 60.96
  A 0.92 0.91 -75.1 0 1 209.50 61.66
  Q 209.63 63.58 209.01 65.49
  A 0.90 0.90 0.0 0 1 207.83 66.06
  Z
  M 239.75 142.88
  A 92.76 92.76 0.0 0 0 146.99 50.12
  A 92.76 92.76 0.0 0 0 54.23 142.88
  A 92.76 92.76 0.0 0 0 146.99 235.64
  A 92.76 92.76 0.0 0 0 239.75 142.88
  Z
  M 234.29 76.68
  Q 238.79 75.99 242.99 75.20
  C 244.01 75.01 244.61 75.37 245.50 75.60
  Q 248.40 76.35 246.56 73.98
  L 243.18 69.64
  Q 242.14 68.31 241.91 69.98
  Q 241.80 70.74 242.09 71.54
  A 1.37 1.37 0.0 0 1 241.05 73.34
  L 233.20 74.80
  Q 232.31 74.96 232.00 74.11
  Q 231.87 73.77 232.00 73.40
  Q 233.49 69.15 235.06 65.44
  A 1.02 1.01 18.7 0 1 236.26 64.85
  Q 236.96 65.03 237.66 64.98
  Q 239.03 64.88 238.10 63.87
  L 231.07 56.12
  Q 230.27 55.23 230.27 56.43
  C 230.28 57.77 230.50 59.05 230.02 60.34
  Q 228.15 65.44 226.05 71.28
  C 225.17 73.70 223.61 74.39 222.04 76.12
  Q 220.08 78.27 217.73 76.15
  Q 217.12 75.60 216.32 75.73
  L 216.01 75.78
  A 0.27 0.26 63.5 0 0 215.87 76.22
  Q 220.60 81.30 224.66 86.32
  A 0.63 0.63 0.0 0 0 225.72 86.20
  L 225.89 85.86
  A 0.84 0.83 35.0 0 0 225.72 84.90
  Q 223.84 83.09 225.73 81.55
  C 227.44 80.16 229.24 77.76 231.39 77.24
  Q 232.73 76.92 234.29 76.68
  Z
  M 74.32 77.66
  A 1.23 1.23 0.0 0 1 72.85 77.52
  L 59.55 65.43
  A 1.48 1.48 0.0 0 1 59.53 63.26
  C 61.63 61.27 63.17 62.08 65.50 62.68
  Q 68.68 63.51 66.35 61.18
  L 63.05 57.88
  A 1.20 1.19 43.6 0 0 61.32 57.92
  L 48.05 72.62
  A 1.49 1.49 0.0 0 0 48.12 74.68
  Q 49.89 76.40 51.80 77.91
  Q 52.28 78.29 52.88 78.20
  A 0.41 0.40 -13.6 0 0 53.21 77.67
  C 52.17 74.71 50.65 73.35 53.11 70.30
  A 1.28 1.28 0.0 0 1 54.97 70.16
  L 68.34 82.30
  A 1.34 1.34 0.0 0 1 68.69 83.76
  Q 68.47 84.37 68.38 84.98
  Q 67.94 87.87 69.77 85.59
  Q 73.03 81.52 76.75 77.75
  Q 77.16 77.34 77.15 76.80
  Q 77.15 75.95 76.43 76.39
  L 74.32 77.66
  Z
  M 72.37 235.41
  L 69.82 234.80
  Q 69.54 234.74 69.42 235.00
  L 69.30 235.28
  A 0.62 0.62 0.0 0 0 69.54 236.04
  L 79.41 242.42
  A 0.61 0.61 0.0 0 0 80.32 241.73
  Q 80.02 240.77 79.25 240.08
  A 1.38 1.37 38.3 0 1 79.04 238.30
  Q 80.64 235.94 82.34 233.15
  Q 82.73 232.51 83.38 232.80
  A 1.08 1.08 0.0 0 1 84.01 233.75
  L 84.31 244.86
  A 1.54 1.53 -75.1 0 0 85.02 246.10
  L 90.13 249.35
  Q 92.10 250.60 91.38 248.38
  C 91.10 247.50 90.62 246.80 90.56 245.82
  Q 90.33 241.49 90.22 237.18
  Q 90.18 235.73 91.63 235.90
  Q 96.12 236.44 97.95 233.09
  C 100.27 228.84 97.61 225.02 94.10 222.72
  C 89.77 219.87 84.72 217.21 81.39 213.11
  Q 75.48 205.86 69.57 199.16
  Q 69.18 198.71 68.80 199.17
  Q 67.10 201.22 64.65 202.90
  Q 64.00 203.35 64.20 204.08
  Q 64.39 204.79 65.08 204.51
  L 68.17 203.28
  A 1.74 1.73 53.3 0 1 69.92 203.54
  L 72.07 205.26
  Q 73.14 206.12 72.07 206.97
  C 67.55 210.60 63.03 214.87 58.12 218.56
  Q 57.24 219.22 56.37 218.81
  Q 55.60 218.45 54.87 217.75
  A 0.41 0.41 0.0 0 0 54.31 217.75
  L 54.04 217.98
  A 0.61 0.61 0.0 0 0 53.99 218.83
  L 61.79 227.68
  A 0.66 0.64 57.0 0 0 62.54 227.85
  L 62.80 227.73
  A 0.23 0.22 65.5 0 0 62.91 227.42
  Q 62.03 225.72 62.12 224.28
  A 0.94 0.92 72.3 0 1 62.46 223.60
  L 75.78 212.32
  A 1.70 1.70 0.0 0 1 78.23 212.60
  C 79.29 214.03 79.46 216.28 78.48 217.82
  Q 77.97 218.61 77.84 219.47
  Q 77.58 221.22 78.85 219.99
  Q 80.47 218.40 82.39 217.37
  A 0.95 0.94 -17.3 0 1 83.78 218.10
  C 83.85 218.72 83.72 219.50 83.37 220.02
  Q 78.60 227.07 73.60 234.91
  A 1.15 1.14 -66.9 0 1 72.37 235.41
  Z
  M 226.52 218.49
  Q 227.19 218.33 227.94 218.41
  Q 233.26 219.03 238.51 219.74
  A 1.97 1.94 -64.5 0 0 240.19 219.13
  L 244.40 214.59
  A 0.62 0.62 0.0 0 0 243.92 213.55
  C 242.53 213.60 241.51 214.12 240.07 213.88
  Q 236.03 213.20 231.81 212.84
  A 0.67 0.67 0.0 0 1 231.22 212.01
  Q 232.89 205.54 227.29 203.23
  C 223.50 201.66 219.22 205.14 217.01 207.77
  Q 213.33 212.14 209.07 216.19
  Q 208.50 216.73 209.28 216.80
  L 210.43 216.91
  A 1.20 1.18 20.9 0 0 211.51 216.44
  Q 212.01 215.76 212.79 215.72
  Q 213.22 215.69 213.52 215.99
  Q 219.54 221.94 226.89 228.46
  C 228.03 229.47 227.24 231.32 226.57 232.36
  A 0.74 0.73 37.0 0 0 226.71 233.31
  L 226.90 233.47
  Q 227.09 233.63 227.24 233.44
  Q 231.15 228.38 235.76 223.99
  A 0.51 0.51 0.0 0 0 235.57 223.13
  L 235.31 223.04
  Q 234.69 222.84 234.23 223.31
  Q 232.27 225.33 230.52 223.39
  Q 228.69 221.34 226.30 219.63
  A 0.64 0.64 0.0 0 1 226.52 218.49
  Z
  M 185.06 245.03
  Q 189.14 244.17 190.54 248.39
  A 0.37 0.36 82.3 0 0 190.85 248.63
  L 191.15 248.65
  Q 191.53 248.67 191.52 248.29
  Q 191.46 246.62 190.80 244.77
  Q 189.08 239.95 187.32 236.50
  A 0.46 0.46 0.0 0 0 186.76 236.27
  L 186.49 236.36
  A 0.30 0.29 -19.4 0 0 186.31 236.73
  Q 187.62 240.54 184.32 242.94
  A 1.03 1.02 -28.3 0 1 182.76 242.48
  L 180.29 236.04
  A 1.25 1.25 0.0 0 1 181.00 234.44
  C 182.62 233.80 187.06 232.32 188.63 233.79
  Q 189.79 234.88 190.89 236.59
  A 0.18 0.17 46.7 0 0 191.18 236.60
  L 191.51 236.13
  A 1.34 1.33 51.0 0 0 191.64 234.83
  L 189.98 231.03
  Q 189.42 229.77 190.77 229.48
  L 192.73 229.05
  Q 193.91 228.80 194.57 229.81
  L 204.45 245.05
  A 1.46 1.46 0.0 0 1 203.95 247.11
  Q 203.24 247.51 202.80 248.18
  A 0.55 0.54 18.6 0 0 203.22 249.02
  Q 204.04 249.08 204.68 248.64
  Q 212.29 243.49 220.77 238.25
  Q 221.35 237.89 221.06 237.28
  L 217.90 230.73
  A 0.55 0.55 0.0 0 0 216.96 230.64
  C 216.65 231.07 216.54 231.57 216.65 232.09
  C 217.68 237.04 215.10 239.07 211.53 241.35
  A 1.32 1.32 0.0 0 1 209.71 240.95
  L 206.30 235.66
  A 1.18 1.18 0.0 0 1 207.40 233.84
  Q 210.14 234.09 211.36 236.34
  Q 211.69 236.95 212.25 236.53
  L 212.82 236.11
  Q 213.31 235.74 212.93 235.25
  Q 209.75 231.22 207.29 226.43
  A 1.75 1.73 -88.3 0 0 206.62 225.71
  Q 205.13 224.82 204.53 225.66
  Q 204.21 226.10 204.63 226.45
  Q 206.95 228.37 205.36 231.66
  A 1.06 1.05 -44.6 0 1 203.45 231.65
  Q 202.19 228.94 200.29 226.43
  A 1.41 1.41 0.0 0 1 200.68 224.38
  C 204.55 222.01 206.53 221.14 210.20 224.69
  Q 210.66 225.14 210.96 224.57
  Q 211.38 223.77 210.90 223.00
  Q 209.42 220.61 207.76 218.28
  Q 207.27 217.59 206.55 218.04
  Q 201.18 221.39 195.60 225.13
  Q 190.62 228.48 184.30 230.98
  Q 176.51 234.06 170.35 236.33
  Q 169.79 236.53 169.99 237.09
  L 170.10 237.40
  A 0.54 0.54 0.0 0 0 170.71 237.74
  Q 172.21 237.42 173.44 237.70
  A 1.12 1.12 0.0 0 1 174.22 238.36
  L 181.16 255.48
  Q 181.43 256.14 180.89 256.60
  L 178.97 258.22
  A 0.57 0.57 0.0 0 0 179.10 259.18
  Q 179.48 259.35 179.86 259.19
  Q 185.23 256.94 190.72 254.92
  A 0.72 0.71 72.9 0 0 191.16 254.07
  L 191.09 253.80
  Q 191.00 253.43 190.65 253.56
  Q 187.47 254.74 186.52 251.72
  Q 185.67 248.99 184.43 246.28
  A 0.90 0.89 -18.3 0 1 185.06 245.03
  Z
  M 110.31 255.46
  Q 109.78 255.25 109.23 255.35
  Q 105.91 255.94 109.11 257.03
  Q 114.09 258.74 118.69 260.36
  Q 120.08 260.84 119.33 259.58
  C 118.67 258.46 117.76 257.66 117.64 256.26
  Q 116.64 245.17 115.73 233.34
  A 0.75 0.75 0.0 0 0 114.43 232.89
  Q 108.70 239.10 102.69 245.69
  Q 100.87 247.70 98.39 249.95
  C 97.55 250.72 96.78 250.59 95.81 250.92
  Q 93.70 251.64 95.75 252.53
  Q 98.99 253.93 102.59 254.73
  A 0.50 0.50 0.0 0 0 103.20 254.29
  Q 103.26 253.80 102.80 253.52
  Q 101.83 252.91 100.90 252.38
  A 0.84 0.83 -63.4 0 1 100.55 251.32
  Q 101.36 249.44 103.10 248.35
  Q 103.60 248.04 104.17 248.21
  L 109.93 249.97
  A 1.14 1.13 -85.6 0 1 110.72 250.90
  L 111.23 254.73
  Q 111.39 255.89 110.31 255.46
  Z
  M 157.66 242.96
  A 2.29 2.28 65.7 0 1 158.84 239.83
  C 162.80 238.22 165.86 240.38 167.50 243.94
  A 1.44 0.79 42.6 0 0 167.59 244.10
  Q 168.23 245.09 168.79 244.60
  A 0.49 0.48 -24.6 0 0 168.95 244.18
  L 168.07 236.72
  A 0.49 0.49 0.0 0 0 167.18 236.49
  C 165.59 238.76 163.48 237.15 161.35 237.22
  Q 159.26 237.28 157.10 237.99
  C 152.92 239.36 151.93 246.72 155.21 249.37
  C 157.72 251.39 161.15 252.58 164.15 253.54
  C 165.86 254.08 167.98 255.75 167.50 257.77
  Q 166.99 259.91 164.55 260.20
  C 161.37 260.58 158.18 259.14 156.91 256.13
  Q 156.42 254.99 155.60 253.98
  Q 154.32 252.41 154.55 254.42
  L 155.52 262.83
  A 0.70 0.70 0.0 0 0 156.66 263.29
  L 157.96 262.22
  Q 158.41 261.85 158.99 261.94
  C 163.62 262.67 167.72 262.77 170.73 258.55
  C 173.37 254.84 171.89 249.90 167.90 248.06
  Q 164.37 246.43 160.18 245.11
  Q 158.46 244.57 157.66 242.96
  Z
  M 144.55 251.82
  Q 144.32 251.75 144.18 251.56
  Q 139.80 245.44 135.73 238.61
  Q 135.42 238.10 134.83 238.00
  Q 131.03 237.34 126.85 237.23
  Q 124.90 237.18 126.49 238.32
  L 128.47 239.74
  A 1.64 1.64 0.0 0 1 129.15 241.23
  L 127.58 258.95
  A 0.95 0.94 -0.4 0 1 126.73 259.80
  Q 125.72 259.91 124.77 260.23
  Q 122.22 261.10 124.89 261.48
  Q 128.87 262.04 132.87 262.08
  A 0.35 0.35 0.0 0 0 133.19 261.58
  L 132.97 261.12
  A 0.64 0.61 80.2 0 0 132.48 260.76
  Q 131.12 260.59 130.26 259.78
  A 1.29 1.29 0.0 0 1 129.86 258.80
  Q 130.11 251.82 130.95 245.65
  Q 131.23 243.62 132.37 245.32
  L 144.00 262.70
  Q 145.99 265.66 146.24 262.10
  Q 146.83 253.71 147.62 244.18
  Q 147.93 240.53 150.20 240.50
  Q 150.60 240.49 150.79 240.15
  Q 150.88 240.00 150.94 239.84
  Q 151.14 239.28 150.56 239.20
  Q 146.66 238.64 143.29 238.57
  Q 142.60 238.56 142.48 239.23
  A 0.61 0.60 12.9 0 0 142.91 239.91
  Q 144.31 240.30 145.38 241.09
  Q 145.84 241.43 145.80 242.01
  L 145.14 251.41
  A 0.46 0.46 0.0 0 1 144.55 251.82
  Z"
/>
<path fill="#ffffff" d="
  M 182.73 27.73
  L 194.98 31.75
  Q 195.61 31.95 195.45 32.59
  L 195.36 32.97
  A 0.38 0.38 0.0 0 1 194.85 33.24
  Q 192.32 32.26 192.30 34.43
  Q 192.26 39.23 192.71 44.78
  Q 192.90 47.14 194.15 45.12
  C 195.93 42.23 198.65 39.77 200.57 37.03
  Q 201.13 36.23 200.30 35.72
  Q 198.48 34.60 199.48 33.63
  A 0.77 0.75 -53.7 0 1 200.35 33.49
  Q 202.44 34.49 204.41 35.07
  Q 207.24 35.91 204.49 36.99
  C 203.75 37.28 203.13 37.55 202.61 38.20
  C 200.62 40.66 198.53 42.86 196.59 45.36
  Q 192.54 50.58 188.21 55.19
  Q 186.66 56.84 186.63 54.58
  Q 186.53 48.70 186.19 41.61
  Q 186.17 41.19 185.87 40.92
  A 0.54 0.54 0.0 0 0 185.11 40.95
  Q 180.47 46.05 176.02 51.02
  Q 175.60 51.49 175.19 51.45
  A 0.87 0.87 0.0 0 1 174.38 50.65
  Q 173.56 40.29 173.31 29.91
  Q 173.26 27.73 172.30 26.02
  Q 170.69 23.14 173.70 24.48
  Q 177.77 26.29 181.58 27.13
  Q 181.92 27.21 182.17 27.42
  Q 182.42 27.63 182.73 27.73
  Z
  M 182.45 28.09
  C 180.18 28.38 179.40 29.74 179.61 31.82
  Q 180.03 36.07 180.02 39.84
  Q 180.01 43.98 182.41 40.61
  Q 183.50 39.09 185.35 37.54
  Q 185.76 37.19 185.77 36.65
  Q 185.83 34.76 185.82 32.80
  C 185.81 30.67 184.47 30.11 183.48 28.58
  Q 183.12 28.01 182.45 28.09
  Z"
/>
<path fill="#ffffff" d="
  M 134.1389 37.1682
  A 11.47 11.47 0.0 0 1 124.3995 50.1399
  L 121.8056 50.5091
  A 11.47 11.47 0.0 0 1 108.8339 40.7696
  L 108.5211 38.5718
  A 11.47 11.47 0.0 0 1 118.2605 25.6001
  L 120.8544 25.2309
  A 11.47 11.47 0.0 0 1 133.8261 34.9704
  L 134.1389 37.1682
  Z
  M 117.61 44.77
  Q 119.03 47.89 121.93 48.24
  C 124.31 48.53 126.96 47.15 127.37 44.60
  Q 128.24 39.15 125.71 32.22
  C 124.06 27.68 120.02 25.46 116.06 29.31
  Q 115.68 29.68 115.54 30.19
  Q 113.89 36.60 117.61 44.77
  Z"
/>
<path fill="#d7261e" d="
  M 117.61 44.77
  Q 113.89 36.60 115.54 30.19
  Q 115.68 29.68 116.06 29.31
  C 120.02 25.46 124.06 27.68 125.71 32.22
  Q 128.24 39.15 127.37 44.60
  C 126.96 47.15 124.31 48.53 121.93 48.24
  Q 119.03 47.89 117.61 44.77
  Z"
/>
<path fill="#d7261e" d="
  M 183.48 28.58
  C 184.47 30.11 185.81 30.67 185.82 32.80
  Q 185.83 34.76 185.77 36.65
  Q 185.76 37.19 185.35 37.54
  Q 183.50 39.09 182.41 40.61
  Q 180.01 43.98 180.02 39.84
  Q 180.03 36.07 179.61 31.82
  C 179.40 29.74 180.18 28.38 182.45 28.09
  Q 183.12 28.01 183.48 28.58
  Z"
/>
<path fill="#ffffff" d="
  M 97.19 47.77
  L 95.01 37.29
  Q 94.72 35.89 93.33 36.24
  Q 92.79 36.37 92.25 36.42
  Q 89.92 36.63 91.69 35.10
  Q 93.94 33.16 96.69 32.02
  A 0.47 0.47 0.0 0 1 97.32 32.57
  Q 96.59 35.46 97.27 38.50
  Q 99.33 47.86 101.28 57.68
  Q 101.72 59.89 99.88 58.58
  L 89.35 51.10
  Q 88.11 50.21 88.35 51.73
  Q 89.38 58.11 90.51 64.37
  Q 90.58 64.76 90.46 65.14
  A 1.03 1.02 -63.5 0 1 88.89 65.67
  Q 79.91 59.30 70.89 53.20
  Q 69.30 52.12 67.38 51.80
  Q 66.19 51.60 67.20 50.95
  L 87.05 38.02
  A 0.47 0.47 0.0 0 1 87.77 38.38
  Q 87.83 39.66 86.81 40.55
  A 0.56 0.56 0.0 0 0 86.85 41.42
  L 96.42 48.28
  A 0.50 0.49 -78.3 0 0 97.19 47.77
  Z
  M 76.51 46.25
  Q 74.50 48.00 76.71 49.49
  Q 80.97 52.37 85.44 55.59
  Q 85.78 55.83 86.12 55.83
  A 0.63 0.63 0.0 0 0 86.74 55.07
  L 85.44 48.96
  Q 85.33 48.44 84.96 48.07
  Q 83.46 46.58 81.31 45.39
  Q 78.98 44.10 76.97 45.85
  Q 76.73 46.06 76.51 46.25
  Z"
/>
<path fill="#d7261e" d="
  M 76.51 46.25
  Q 76.73 46.06 76.97 45.85
  Q 78.98 44.10 81.31 45.39
  Q 83.46 46.58 84.96 48.07
  Q 85.33 48.44 85.44 48.96
  L 86.74 55.07
  A 0.63 0.63 0.0 0 1 86.12 55.83
  Q 85.78 55.83 85.44 55.59
  Q 80.97 52.37 76.71 49.49
  Q 74.50 48.00 76.51 46.25
  Z"
/>
<path fill="#ffffff" d="
  M 209.01 65.49
  Q 209.63 63.58 209.50 61.66
  A 0.92 0.91 -75.1 0 0 209.10 60.96
  L 204.14 57.53
  Q 203.65 57.19 203.09 57.36
  Q 201.19 57.93 200.10 59.52
  A 0.79 0.79 0.0 0 0 200.21 60.53
  Q 201.19 61.45 201.41 62.46
  Q 201.80 64.21 200.34 63.17
  L 194.74 59.18
  Q 193.15 58.05 195.10 57.96
  C 196.10 57.92 197.02 57.93 197.94 57.47
  C 204.70 54.08 211.07 49.73 217.74 45.97
  Q 218.32 45.64 218.95 45.78
  A 0.32 0.32 0.0 0 1 219.19 46.15
  Q 217.05 57.95 214.91 68.89
  C 214.75 69.69 214.90 70.39 215.20 71.14
  Q 216.36 74.06 213.74 72.33
  L 205.17 66.66
  Q 204.06 65.93 205.38 65.77
  Q 206.67 65.61 207.83 66.06
  A 0.90 0.90 0.0 0 0 209.01 65.49
  Z
  M 206.16 55.23
  A 0.60 0.60 0.0 0 0 206.13 56.25
  L 209.48 58.58
  A 0.60 0.60 0.0 0 0 210.42 58.19
  L 211.26 53.40
  A 0.60 0.60 0.0 0 0 210.36 52.78
  L 206.16 55.23
  Z"
/>
<path fill="#ffffff" d="
  M 239.75 142.88
  A 92.76 92.76 0.0 0 1 146.99 235.64
  A 92.76 92.76 0.0 0 1 54.23 142.88
  A 92.76 92.76 0.0 0 1 146.99 50.12
  A 92.76 92.76 0.0 0 1 239.75 142.88
  Z
  M 199.82 119.28
  L 233.26 139.51
  A 0.59 0.59 0.0 0 0 234.16 138.98
  C 233.14 111.96 221.72 87.58 199.51 72.02
  C 171.95 52.70 135.53 49.94 105.61 65.14
  Q 77.97 79.17 65.34 111.25
  Q 64.36 113.73 64.26 115.95
  Q 64.24 116.47 64.69 116.74
  L 92.51 133.00
  A 3.75 3.73 -39.8 0 0 95.67 133.28
  Q 104.67 129.98 113.41 126.64
  Q 115.37 125.89 116.35 124.19
  Q 124.70 109.79 140.91 107.61
  C 156.90 105.47 171.85 112.70 179.06 127.31
  A 0.69 0.68 -25.4 0 0 179.95 127.62
  L 198.61 119.20
  Q 199.23 118.92 199.82 119.28
  Z
  M 177.56 142.85
  A 30.56 30.56 0.0 0 0 147.00 112.29
  A 30.56 30.56 0.0 0 0 116.44 142.85
  A 30.56 30.56 0.0 0 0 147.00 173.41
  A 30.56 30.56 0.0 0 0 177.56 142.85
  Z
  M 77.63 143.05
  Q 78.43 144.00 77.95 145.21
  Q 77.82 145.56 78.02 145.88
  Q 78.38 146.46 79.16 146.38
  Q 79.82 146.30 79.78 145.64
  Q 79.61 142.56 79.50 139.04
  Q 79.49 138.50 79.09 138.17
  Q 78.52 137.69 77.75 138.12
  Q 77.24 138.41 77.19 138.99
  L 76.95 141.46
  Q 76.90 142.03 76.33 141.98
  L 76.06 141.95
  A 1.16 1.14 -4.6 0 1 75.04 141.09
  L 74.39 138.54
  A 0.90 0.88 0.1 0 0 73.74 137.90
  Q 72.78 137.66 72.38 138.25
  Q 72.22 138.49 72.21 138.79
  Q 72.10 142.56 71.98 145.98
  A 0.71 0.70 88.2 0 0 72.75 146.71
  Q 73.99 146.57 73.68 145.35
  Q 73.27 143.79 74.16 142.53
  Q 74.61 141.91 74.73 142.67
  Q 74.90 143.73 74.70 144.79
  Q 74.38 146.53 76.24 146.35
  Q 77.21 146.26 76.89 145.34
  Q 76.50 144.24 76.97 143.15
  Q 77.22 142.57 77.63 143.05
  Z
  M 91.35 140.12
  L 89.66 138.15
  A 0.51 0.51 0.0 0 0 89.04 138.02
  L 88.75 138.17
  Q 88.37 138.36 88.58 138.72
  Q 89.11 139.64 89.71 140.56
  C 90.87 142.34 89.81 144.54 88.22 145.61
  Q 87.81 145.89 87.32 145.76
  Q 85.81 145.35 84.20 145.52
  A 0.81 0.81 0.0 0 1 83.35 144.98
  Q 83.17 144.46 83.17 143.86
  Q 83.17 143.12 83.91 143.09
  Q 84.68 143.05 85.50 143.33
  A 0.92 0.91 -83.6 0 0 86.71 142.36
  Q 86.65 141.85 86.20 141.61
  Q 85.79 141.39 85.36 141.55
  Q 84.73 141.78 84.02 141.80
  Q 83.43 141.82 83.14 141.29
  Q 82.82 140.69 83.12 140.06
  Q 83.44 139.40 84.17 139.42
  L 85.98 139.47
  Q 86.52 139.49 86.73 138.99
  L 86.85 138.72
  Q 87.06 138.23 86.54 138.13
  Q 84.48 137.75 82.10 138.14
  A 0.73 0.73 0.0 0 0 81.49 138.87
  L 81.54 146.11
  Q 81.55 146.63 82.06 146.72
  Q 84.80 147.17 87.40 146.38
  A 1.06 1.05 50.3 0 1 88.21 146.46
  C 89.07 146.91 89.95 146.73 90.38 145.80
  Q 90.67 145.19 91.04 144.62
  Q 91.35 144.15 91.70 144.59
  L 93.51 146.85
  A 0.53 0.53 0.0 0 0 94.24 146.94
  L 94.54 146.71
  Q 94.73 146.57 94.65 146.35
  C 93.86 144.14 91.23 142.66 93.77 140.10
  Q 94.52 139.34 94.22 138.32
  A 0.45 0.45 0.0 0 0 93.57 138.06
  Q 92.57 138.61 92.34 139.85
  A 0.57 0.57 0.0 0 1 91.35 140.12
  Z
  M 101.94 145.47
  C 100.00 144.61 100.09 141.93 100.84 140.32
  A 1.51 1.51 0.0 0 1 103.02 139.69
  L 104.44 140.60
  Q 104.82 140.84 105.08 140.48
  L 105.40 140.05
  Q 105.45 139.99 105.41 139.93
  Q 104.13 137.45 101.32 138.15
  C 97.92 138.98 97.78 146.36 101.81 146.82
  Q 104.77 147.16 105.10 144.86
  Q 105.32 143.32 104.07 144.25
  Q 103.44 144.71 102.95 145.25
  A 0.88 0.87 -56.9 0 1 101.94 145.47
  Z
  M 114.2158 141.4825
  A 3.25 3.25 0.0 0 0 111.1106 138.0938
  L 110.2115 138.0545
  A 3.25 3.25 0.0 0 0 106.8228 141.1597
  L 106.7242 143.4175
  A 3.25 3.25 0.0 0 0 109.8294 146.8062
  L 110.7285 146.8455
  A 3.25 3.25 0.0 0 0 114.1172 143.7403
  L 114.2158 141.4825
  Z
  M 97.4738 138.9487
  A 0.67 0.67 0.0 0 0 96.8027 138.2798
  L 96.6227 138.2802
  A 0.67 0.67 0.0 0 0 95.9538 138.9513
  L 95.9662 146.0313
  A 0.67 0.67 0.0 0 0 96.6373 146.7002
  L 96.8173 146.6998
  A 0.67 0.67 0.0 0 0 97.4862 146.0287
  L 97.4738 138.9487
  Z
  M 203.43 146.32
  A 1.34 1.32 -78.1 0 1 202.68 145.15
  L 202.58 139.66
  A 0.58 0.58 0.0 0 0 201.91 139.09
  L 201.60 139.14
  A 0.40 0.40 0.0 0 0 201.26 139.48
  Q 200.81 142.90 201.35 146.03
  A 2.30 2.29 -88.5 0 0 203.10 147.88
  Q 209.04 149.21 207.16 139.44
  A 0.34 0.34 0.0 0 0 206.68 139.20
  L 206.38 139.35
  Q 205.71 139.67 205.78 140.41
  Q 206.51 147.80 203.43 146.32
  Z
  M 211.62 142.62
  C 210.91 142.43 210.54 141.65 210.82 140.98
  Q 211.12 140.28 211.85 140.34
  Q 213.01 140.43 213.60 141.55
  Q 213.83 141.99 214.18 141.65
  L 214.42 141.42
  A 0.90 0.90 0.0 0 0 214.56 140.28
  C 213.36 138.41 210.12 138.41 209.34 140.72
  C 209.02 141.68 209.62 142.71 209.84 143.66
  Q 209.99 144.30 210.62 144.11
  Q 212.10 143.66 213.08 144.79
  A 1.04 1.04 0.0 0 1 212.42 146.50
  Q 211.06 146.68 210.03 145.45
  A 0.45 0.45 0.0 0 0 209.28 145.54
  L 209.13 145.82
  A 0.95 0.94 34.5 0 0 209.34 146.93
  C 211.61 149.03 215.67 148.02 214.63 144.20
  A 1.90 1.90 0.0 0 0 212.82 142.79
  Q 212.21 142.78 211.62 142.62
  Z
  M 219.62 145.53
  Q 221.11 145.67 222.05 147.68
  A 0.38 0.37 63.5 0 0 222.57 147.86
  L 222.83 147.72
  Q 223.44 147.39 223.21 146.74
  Q 222.04 143.42 220.88 140.67
  Q 219.43 137.22 218.18 140.74
  Q 217.09 143.80 215.90 146.64
  Q 215.77 146.94 215.88 147.25
  Q 215.98 147.54 216.24 147.65
  Q 216.75 147.87 217.14 147.47
  L 218.68 145.88
  A 1.18 1.16 -65.0 0 1 219.62 145.53
  Z
  M 59.79 158.95
  C 67.44 191.68 89.13 218.32 121.58 227.91
  Q 135.48 232.02 147.03 231.65
  Q 187.40 230.34 213.91 199.55
  Q 222.94 189.07 228.74 176.55
  A 0.73 0.73 0.0 0 0 228.43 175.60
  L 196.75 157.77
  A 2.02 2.02 0.0 0 0 195.05 157.64
  Q 185.89 161.08 177.06 164.74
  C 175.84 165.25 174.53 165.98 173.63 166.97
  C 158.45 183.94 132.03 182.46 118.76 164.03
  A 1.37 1.36 61.5 0 0 117.15 163.55
  L 92.97 172.93
  A 3.72 3.69 -42.1 0 1 89.98 172.79
  L 60.82 158.14
  Q 59.44 157.45 59.79 158.95
  Z"
/>
<path fill="#d7261e" d="
  M 206.16 55.23
  L 210.36 52.78
  A 0.60 0.60 0.0 0 1 211.26 53.40
  L 210.42 58.19
  A 0.60 0.60 0.0 0 1 209.48 58.58
  L 206.13 56.25
  A 0.60 0.60 0.0 0 1 206.16 55.23
  Z"
/>
<path fill="#019342" d="
  M 198.61 119.20
  L 179.95 127.62
  A 0.69 0.68 -25.4 0 1 179.06 127.31
  C 171.85 112.70 156.90 105.47 140.91 107.61
  Q 124.70 109.79 116.35 124.19
  Q 115.37 125.89 113.41 126.64
  Q 104.67 129.98 95.67 133.28
  A 3.75 3.73 -39.8 0 1 92.51 133.00
  L 64.69 116.74
  Q 64.24 116.47 64.26 115.95
  Q 64.36 113.73 65.34 111.25
  Q 77.97 79.17 105.61 65.14
  C 135.53 49.94 171.95 52.70 199.51 72.02
  C 221.72 87.58 233.14 111.96 234.16 138.98
  A 0.59 0.59 0.0 0 1 233.26 139.51
  L 199.82 119.28
  Q 199.23 118.92 198.61 119.20
  Z"
/>
<path fill="#ffffff" d="
  M 234.29 76.68
  Q 232.73 76.92 231.39 77.24
  C 229.24 77.76 227.44 80.16 225.73 81.55
  Q 223.84 83.09 225.72 84.90
  A 0.84 0.83 35.0 0 1 225.89 85.86
  L 225.72 86.20
  A 0.63 0.63 0.0 0 1 224.66 86.32
  Q 220.60 81.30 215.87 76.22
  A 0.27 0.26 63.5 0 1 216.01 75.78
  L 216.32 75.73
  Q 217.12 75.60 217.73 76.15
  Q 220.08 78.27 222.04 76.12
  C 223.61 74.39 225.17 73.70 226.05 71.28
  Q 228.15 65.44 230.02 60.34
  C 230.50 59.05 230.28 57.77 230.27 56.43
  Q 230.27 55.23 231.07 56.12
  L 238.10 63.87
  Q 239.03 64.88 237.66 64.98
  Q 236.96 65.03 236.26 64.85
  A 1.02 1.01 18.7 0 0 235.06 65.44
  Q 233.49 69.15 232.00 73.40
  Q 231.87 73.77 232.00 74.11
  Q 232.31 74.96 233.20 74.80
  L 241.05 73.34
  A 1.37 1.37 0.0 0 0 242.09 71.54
  Q 241.80 70.74 241.91 69.98
  Q 242.14 68.31 243.18 69.64
  L 246.56 73.98
  Q 248.40 76.35 245.50 75.60
  C 244.61 75.37 244.01 75.01 242.99 75.20
  Q 238.79 75.99 234.29 76.68
  Z"
/>
<path fill="#ffffff" d="
  M 74.32 77.66
  L 76.43 76.39
  Q 77.15 75.95 77.15 76.80
  Q 77.16 77.34 76.75 77.75
  Q 73.03 81.52 69.77 85.59
  Q 67.94 87.87 68.38 84.98
  Q 68.47 84.37 68.69 83.76
  A 1.34 1.34 0.0 0 0 68.34 82.30
  L 54.97 70.16
  A 1.28 1.28 0.0 0 0 53.11 70.30
  C 50.65 73.35 52.17 74.71 53.21 77.67
  A 0.41 0.40 -13.6 0 1 52.88 78.20
  Q 52.28 78.29 51.80 77.91
  Q 49.89 76.40 48.12 74.68
  A 1.49 1.49 0.0 0 1 48.05 72.62
  L 61.32 57.92
  A 1.20 1.19 43.6 0 1 63.05 57.88
  L 66.35 61.18
  Q 68.68 63.51 65.50 62.68
  C 63.17 62.08 61.63 61.27 59.53 63.26
  A 1.48 1.48 0.0 0 0 59.55 65.43
  L 72.85 77.52
  A 1.23 1.23 0.0 0 0 74.32 77.66
  Z"
/>
<path fill="#201a19" d="
  M 177.56 142.85
  A 30.56 30.56 0.0 0 1 147.00 173.41
  A 30.56 30.56 0.0 0 1 116.44 142.85
  A 30.56 30.56 0.0 0 1 147.00 112.29
  A 30.56 30.56 0.0 0 1 177.56 142.85
  Z
  M 137.24 148.04
  A 0.59 0.59 0.0 0 1 136.64 147.46
  L 136.43 135.44
  A 0.59 0.59 0.0 0 0 135.72 134.87
  L 133.91 135.26
  A 0.59 0.59 0.0 0 0 133.44 135.84
  L 133.49 150.10
  A 0.59 0.59 0.0 0 0 134.09 150.69
  L 143.92 150.57
  A 0.59 0.59 0.0 0 0 144.50 149.91
  L 144.34 148.47
  A 0.59 0.59 0.0 0 0 143.74 147.95
  L 137.24 148.04
  Z
  M 150.07 140.43
  L 152.33 149.74
  A 1.48 1.48 0.0 0 0 153.67 150.86
  Q 155.32 150.95 155.61 149.85
  Q 156.68 145.73 157.89 141.41
  Q 158.82 138.08 158.75 141.54
  L 158.61 149.73
  Q 158.58 150.88 159.73 150.75
  L 160.40 150.67
  Q 161.52 150.54 161.46 149.42
  Q 161.11 142.81 161.56 135.72
  Q 161.61 134.96 160.84 134.92
  L 157.78 134.79
  Q 156.69 134.74 156.43 135.81
  L 154.66 143.25
  Q 154.04 145.84 153.39 143.26
  L 151.56 135.95
  Q 151.37 135.18 150.60 135.00
  Q 148.96 134.62 147.16 134.99
  A 0.83 0.82 -6.4 0 0 146.50 135.81
  L 146.61 149.66
  Q 146.62 150.70 147.66 150.73
  L 148.31 150.74
  Q 149.31 150.77 149.33 149.78
  Q 149.47 144.91 149.32 140.24
  Q 149.32 140.18 149.38 140.17
  L 149.64 140.14
  Q 149.98 140.09 150.07 140.43
  Z
  M 130.9140 140.0332
  A 0.97 0.97 0.0 0 0 129.9306 139.0769
  L 120.8715 139.2034
  A 0.97 0.97 0.0 0 0 119.9151 140.1868
  L 119.9260 140.9668
  A 0.97 0.97 0.0 0 0 120.9094 141.9231
  L 129.9685 141.7966
  A 0.97 0.97 0.0 0 0 130.9249 140.8132
  L 130.9140 140.0332
  Z
  M 173.99 141.73
  A 0.92 0.92 0.0 0 0 174.77 140.36
  L 174.34 139.62
  A 0.92 0.92 0.0 0 0 173.55 139.15
  L 164.90 139.05
  A 0.92 0.92 0.0 0 0 163.98 139.80
  L 163.78 140.90
  A 0.92 0.92 0.0 0 0 164.71 141.99
  L 173.99 141.73
  Z
  M 130.93 144.85
  A 0.87 0.87 0.0 0 0 130.06 143.98
  L 120.80 143.98
  A 0.87 0.87 0.0 0 0 119.93 144.85
  L 119.93 145.67
  A 0.87 0.87 0.0 0 0 120.80 146.54
  L 130.06 146.54
  A 0.87 0.87 0.0 0 0 130.93 145.67
  L 130.93 144.85
  Z
  M 174.8175 144.9926
  A 1.07 1.07 0.0 0 0 173.7364 143.9339
  L 164.9168 144.0263
  A 1.07 1.07 0.0 0 0 163.8581 145.1074
  L 163.8625 145.5274
  A 1.07 1.07 0.0 0 0 164.9436 146.5861
  L 173.7632 146.4937
  A 1.07 1.07 0.0 0 0 174.8219 145.4126
  L 174.8175 144.9926
  Z"
/>
<path fill="#ffffff" d="
  M 137.24 148.04
  L 143.74 147.95
  A 0.59 0.59 0.0 0 1 144.34 148.47
  L 144.50 149.91
  A 0.59 0.59 0.0 0 1 143.92 150.57
  L 134.09 150.69
  A 0.59 0.59 0.0 0 1 133.49 150.10
  L 133.44 135.84
  A 0.59 0.59 0.0 0 1 133.91 135.26
  L 135.72 134.87
  A 0.59 0.59 0.0 0 1 136.43 135.44
  L 136.64 147.46
  A 0.59 0.59 0.0 0 0 137.24 148.04
  Z"
/>
<path fill="#ffffff" d="
  M 150.07 140.43
  Q 149.98 140.09 149.64 140.14
  L 149.38 140.17
  Q 149.32 140.18 149.32 140.24
  Q 149.47 144.91 149.33 149.78
  Q 149.31 150.77 148.31 150.74
  L 147.66 150.73
  Q 146.62 150.70 146.61 149.66
  L 146.50 135.81
  A 0.83 0.82 -6.4 0 1 147.16 134.99
  Q 148.96 134.62 150.60 135.00
  Q 151.37 135.18 151.56 135.95
  L 153.39 143.26
  Q 154.04 145.84 154.66 143.25
  L 156.43 135.81
  Q 156.69 134.74 157.78 134.79
  L 160.84 134.92
  Q 161.61 134.96 161.56 135.72
  Q 161.11 142.81 161.46 149.42
  Q 161.52 150.54 160.40 150.67
  L 159.73 150.75
  Q 158.58 150.88 158.61 149.73
  L 158.75 141.54
  Q 158.82 138.08 157.89 141.41
  Q 156.68 145.73 155.61 149.85
  Q 155.32 150.95 153.67 150.86
  A 1.48 1.48 0.0 0 1 152.33 149.74
  L 150.07 140.43
  Z"
/>
<path fill="#201a19" d="
  M 76.97 143.15
  Q 76.50 144.24 76.89 145.34
  Q 77.21 146.26 76.24 146.35
  Q 74.38 146.53 74.70 144.79
  Q 74.90 143.73 74.73 142.67
  Q 74.61 141.91 74.16 142.53
  Q 73.27 143.79 73.68 145.35
  Q 73.99 146.57 72.75 146.71
  A 0.71 0.70 88.2 0 1 71.98 145.98
  Q 72.10 142.56 72.21 138.79
  Q 72.22 138.49 72.38 138.25
  Q 72.78 137.66 73.74 137.90
  A 0.90 0.88 0.1 0 1 74.39 138.54
  L 75.04 141.09
  A 1.16 1.14 -4.6 0 0 76.06 141.95
  L 76.33 141.98
  Q 76.90 142.03 76.95 141.46
  L 77.19 138.99
  Q 77.24 138.41 77.75 138.12
  Q 78.52 137.69 79.09 138.17
  Q 79.49 138.50 79.50 139.04
  Q 79.61 142.56 79.78 145.64
  Q 79.82 146.30 79.16 146.38
  Q 78.38 146.46 78.02 145.88
  Q 77.82 145.56 77.95 145.21
  Q 78.43 144.00 77.63 143.05
  Q 77.22 142.57 76.97 143.15
  Z"
/>
<path fill="#201a19" d="
  M 91.35 140.12
  A 0.57 0.57 0.0 0 0 92.34 139.85
  Q 92.57 138.61 93.57 138.06
  A 0.45 0.45 0.0 0 1 94.22 138.32
  Q 94.52 139.34 93.77 140.10
  C 91.23 142.66 93.86 144.14 94.65 146.35
  Q 94.73 146.57 94.54 146.71
  L 94.24 146.94
  A 0.53 0.53 0.0 0 1 93.51 146.85
  L 91.70 144.59
  Q 91.35 144.15 91.04 144.62
  Q 90.67 145.19 90.38 145.80
  C 89.95 146.73 89.07 146.91 88.21 146.46
  A 1.06 1.05 50.3 0 0 87.40 146.38
  Q 84.80 147.17 82.06 146.72
  Q 81.55 146.63 81.54 146.11
  L 81.49 138.87
  A 0.73 0.73 0.0 0 1 82.10 138.14
  Q 84.48 137.75 86.54 138.13
  Q 87.06 138.23 86.85 138.72
  L 86.73 138.99
  Q 86.52 139.49 85.98 139.47
  L 84.17 139.42
  Q 83.44 139.40 83.12 140.06
  Q 82.82 140.69 83.14 141.29
  Q 83.43 141.82 84.02 141.80
  Q 84.73 141.78 85.36 141.55
  Q 85.79 141.39 86.20 141.61
  Q 86.65 141.85 86.71 142.36
  A 0.92 0.91 -83.6 0 1 85.50 143.33
  Q 84.68 143.05 83.91 143.09
  Q 83.17 143.12 83.17 143.86
  Q 83.17 144.46 83.35 144.98
  A 0.81 0.81 0.0 0 0 84.20 145.52
  Q 85.81 145.35 87.32 145.76
  Q 87.81 145.89 88.22 145.61
  C 89.81 144.54 90.87 142.34 89.71 140.56
  Q 89.11 139.64 88.58 138.72
  Q 88.37 138.36 88.75 138.17
  L 89.04 138.02
  A 0.51 0.51 0.0 0 1 89.66 138.15
  L 91.35 140.12
  Z"
/>
<path fill="#201a19" d="
  M 100.84 140.32
  C 100.09 141.93 100.00 144.61 101.94 145.47
  A 0.88 0.87 -56.9 0 0 102.95 145.25
  Q 103.44 144.71 104.07 144.25
  Q 105.32 143.32 105.10 144.86
  Q 104.77 147.16 101.81 146.82
  C 97.78 146.36 97.92 138.98 101.32 138.15
  Q 104.13 137.45 105.41 139.93
  Q 105.45 139.99 105.40 140.05
  L 105.08 140.48
  Q 104.82 140.84 104.44 140.60
  L 103.02 139.69
  A 1.51 1.51 0.0 0 0 100.84 140.32
  Z"
/>
<path fill="#201a19" d="
  M 114.1172 143.7403
  A 3.25 3.25 0.0 0 1 110.7285 146.8455
  L 109.8294 146.8062
  A 3.25 3.25 0.0 0 1 106.7242 143.4175
  L 106.8228 141.1597
  A 3.25 3.25 0.0 0 1 110.2115 138.0545
  L 111.1106 138.0938
  A 3.25 3.25 0.0 0 1 114.2158 141.4825
  L 114.1172 143.7403
  Z
  M 110.3416 145.5369
  A 3.05 2.11 92.6 0 0 112.5878 142.5857
  A 3.05 2.11 92.6 0 0 110.6184 139.4431
  A 3.05 2.11 92.6 0 0 108.3722 142.3943
  A 3.05 2.11 92.6 0 0 110.3416 145.5369
  Z"
/>
<rect fill="#201a19" x="-0.76" y="-4.21" transform="translate(96.72,142.49) rotate(-0.1)" width="1.52" height="8.42" rx="0.67"/>
<rect fill="#ffffff" x="-5.50" y="-1.36" transform="translate(125.42,140.50) rotate(-0.8)" width="11.00" height="2.72" rx="0.97"/>
<path fill="#ffffff" d="
  M 173.99 141.73
  L 164.71 141.99
  A 0.92 0.92 0.0 0 1 163.78 140.90
  L 163.98 139.80
  A 0.92 0.92 0.0 0 1 164.90 139.05
  L 173.55 139.15
  A 0.92 0.92 0.0 0 1 174.34 139.62
  L 174.77 140.36
  A 0.92 0.92 0.0 0 1 173.99 141.73
  Z"
/>
<path fill="#201a19" d="
  M 203.43 146.32
  Q 206.51 147.80 205.78 140.41
  Q 205.71 139.67 206.38 139.35
  L 206.68 139.20
  A 0.34 0.34 0.0 0 1 207.16 139.44
  Q 209.04 149.21 203.10 147.88
  A 2.30 2.29 -88.5 0 1 201.35 146.03
  Q 200.81 142.90 201.26 139.48
  A 0.40 0.40 0.0 0 1 201.60 139.14
  L 201.91 139.09
  A 0.58 0.58 0.0 0 1 202.58 139.66
  L 202.68 145.15
  A 1.34 1.32 -78.1 0 0 203.43 146.32
  Z"
/>
<path fill="#201a19" d="
  M 211.62 142.62
  Q 212.21 142.78 212.82 142.79
  A 1.90 1.90 0.0 0 1 214.63 144.20
  C 215.67 148.02 211.61 149.03 209.34 146.93
  A 0.95 0.94 34.5 0 1 209.13 145.82
  L 209.28 145.54
  A 0.45 0.45 0.0 0 1 210.03 145.45
  Q 211.06 146.68 212.42 146.50
  A 1.04 1.04 0.0 0 0 213.08 144.79
  Q 212.10 143.66 210.62 144.11
  Q 209.99 144.30 209.84 143.66
  C 209.62 142.71 209.02 141.68 209.34 140.72
  C 210.12 138.41 213.36 138.41 214.56 140.28
  A 0.90 0.90 0.0 0 1 214.42 141.42
  L 214.18 141.65
  Q 213.83 141.99 213.60 141.55
  Q 213.01 140.43 211.85 140.34
  Q 211.12 140.28 210.82 140.98
  C 210.54 141.65 210.91 142.43 211.62 142.62
  Z"
/>
<path fill="#201a19" d="
  M 218.68 145.88
  L 217.14 147.47
  Q 216.75 147.87 216.24 147.65
  Q 215.98 147.54 215.88 147.25
  Q 215.77 146.94 215.90 146.64
  Q 217.09 143.80 218.18 140.74
  Q 219.43 137.22 220.88 140.67
  Q 222.04 143.42 223.21 146.74
  Q 223.44 147.39 222.83 147.72
  L 222.57 147.86
  A 0.38 0.37 63.5 0 1 222.05 147.68
  Q 221.11 145.67 219.62 145.53
  A 1.18 1.16 -65.0 0 0 218.68 145.88
  Z
  M 218.72 143.90
  A 0.55 0.55 0.0 0 0 219.04 144.49
  Q 219.53 144.70 220.07 144.47
  A 0.74 0.74 0.0 0 0 220.52 143.72
  Q 220.46 143.05 220.01 142.53
  A 0.53 0.52 38.9 0 0 219.16 142.62
  Q 218.84 143.20 218.72 143.90
  Z"
/>
<ellipse fill="#ffffff" cx="0.00" cy="0.00" transform="translate(110.48,142.49) rotate(92.6)" rx="3.05" ry="2.11"/>
<path fill="#ffffff" d="
  M 218.72 143.90
  Q 218.84 143.20 219.16 142.62
  A 0.53 0.52 38.9 0 1 220.01 142.53
  Q 220.46 143.05 220.52 143.72
  A 0.74 0.74 0.0 0 1 220.07 144.47
  Q 219.53 144.70 219.04 144.49
  A 0.55 0.55 0.0 0 1 218.72 143.90
  Z"
/>
<rect fill="#ffffff" x="119.93" y="143.98" width="11.00" height="2.56" rx="0.87"/>
<rect fill="#ffffff" x="-5.48" y="-1.28" transform="translate(169.34,145.26) rotate(-0.6)" width="10.96" height="2.56" rx="1.07"/>
<path fill="#2a176f" d="
  M 59.79 158.95
  Q 59.44 157.45 60.82 158.14
  L 89.98 172.79
  A 3.72 3.69 -42.1 0 0 92.97 172.93
  L 117.15 163.55
  A 1.37 1.36 61.5 0 1 118.76 164.03
  C 132.03 182.46 158.45 183.94 173.63 166.97
  C 174.53 165.98 175.84 165.25 177.06 164.74
  Q 185.89 161.08 195.05 157.64
  A 2.02 2.02 0.0 0 1 196.75 157.77
  L 228.43 175.60
  A 0.73 0.73 0.0 0 1 228.74 176.55
  Q 222.94 189.07 213.91 199.55
  Q 187.40 230.34 147.03 231.65
  Q 135.48 232.02 121.58 227.91
  C 89.13 218.32 67.44 191.68 59.79 158.95
  Z"
/>
<path fill="#ffffff" d="
  M 72.37 235.41
  A 1.15 1.14 -66.9 0 0 73.60 234.91
  Q 78.60 227.07 83.37 220.02
  C 83.72 219.50 83.85 218.72 83.78 218.10
  A 0.95 0.94 -17.3 0 0 82.39 217.37
  Q 80.47 218.40 78.85 219.99
  Q 77.58 221.22 77.84 219.47
  Q 77.97 218.61 78.48 217.82
  C 79.46 216.28 79.29 214.03 78.23 212.60
  A 1.70 1.70 0.0 0 0 75.78 212.32
  L 62.46 223.60
  A 0.94 0.92 72.3 0 0 62.12 224.28
  Q 62.03 225.72 62.91 227.42
  A 0.23 0.22 65.5 0 1 62.80 227.73
  L 62.54 227.85
  A 0.66 0.64 57.0 0 1 61.79 227.68
  L 53.99 218.83
  A 0.61 0.61 0.0 0 1 54.04 217.98
  L 54.31 217.75
  A 0.41 0.41 0.0 0 1 54.87 217.75
  Q 55.60 218.45 56.37 218.81
  Q 57.24 219.22 58.12 218.56
  C 63.03 214.87 67.55 210.60 72.07 206.97
  Q 73.14 206.12 72.07 205.26
  L 69.92 203.54
  A 1.74 1.73 53.3 0 0 68.17 203.28
  L 65.08 204.51
  Q 64.39 204.79 64.20 204.08
  Q 64.00 203.35 64.65 202.90
  Q 67.10 201.22 68.80 199.17
  Q 69.18 198.71 69.57 199.16
  Q 75.48 205.86 81.39 213.11
  C 84.72 217.21 89.77 219.87 94.10 222.72
  C 97.61 225.02 100.27 228.84 97.95 233.09
  Q 96.12 236.44 91.63 235.90
  Q 90.18 235.73 90.22 237.18
  Q 90.33 241.49 90.56 245.82
  C 90.62 246.80 91.10 247.50 91.38 248.38
  Q 92.10 250.60 90.13 249.35
  L 85.02 246.10
  A 1.54 1.53 -75.1 0 1 84.31 244.86
  L 84.01 233.75
  A 1.08 1.08 0.0 0 0 83.38 232.80
  Q 82.73 232.51 82.34 233.15
  Q 80.64 235.94 79.04 238.30
  A 1.38 1.37 38.3 0 0 79.25 240.08
  Q 80.02 240.77 80.32 241.73
  A 0.61 0.61 0.0 0 1 79.41 242.42
  L 69.54 236.04
  A 0.62 0.62 0.0 0 1 69.30 235.28
  L 69.42 235.00
  Q 69.54 234.74 69.82 234.80
  L 72.37 235.41
  Z
  M 88.73 223.27
  L 84.94 228.99
  A 1.43 1.43 0.0 0 0 85.34 230.97
  L 85.82 231.29
  A 4.39 3.90 33.6 0 0 91.63 230.47
  L 92.70 228.87
  A 4.39 3.90 33.6 0 0 91.20 223.19
  L 90.72 222.87
  A 1.43 1.43 0.0 0 0 88.73 223.27
  Z"
/>
<path fill="#ffffff" d="
  M 226.52 218.49
  A 0.64 0.64 0.0 0 0 226.30 219.63
  Q 228.69 221.34 230.52 223.39
  Q 232.27 225.33 234.23 223.31
  Q 234.69 222.84 235.31 223.04
  L 235.57 223.13
  A 0.51 0.51 0.0 0 1 235.76 223.99
  Q 231.15 228.38 227.24 233.44
  Q 227.09 233.63 226.90 233.47
  L 226.71 233.31
  A 0.74 0.73 37.0 0 1 226.57 232.36
  C 227.24 231.32 228.03 229.47 226.89 228.46
  Q 219.54 221.94 213.52 215.99
  Q 213.22 215.69 212.79 215.72
  Q 212.01 215.76 211.51 216.44
  A 1.20 1.18 20.9 0 1 210.43 216.91
  L 209.28 216.80
  Q 208.50 216.73 209.07 216.19
  Q 213.33 212.14 217.01 207.77
  C 219.22 205.14 223.50 201.66 227.29 203.23
  Q 232.89 205.54 231.22 212.01
  A 0.67 0.67 0.0 0 0 231.81 212.84
  Q 236.03 213.20 240.07 213.88
  C 241.51 214.12 242.53 213.60 243.92 213.55
  A 0.62 0.62 0.0 0 1 244.40 214.59
  L 240.19 219.13
  A 1.97 1.94 -64.5 0 1 238.51 219.74
  Q 233.26 219.03 227.94 218.41
  Q 227.19 218.33 226.52 218.49
  Z
  M 217.71 211.31
  L 223.77 216.81
  A 0.80 0.80 0.0 0 0 224.90 216.75
  L 225.53 216.06
  A 4.61 4.00 -47.8 0 0 225.66 209.96
  L 224.34 208.76
  A 4.61 4.00 -47.8 0 0 218.28 209.49
  L 217.66 210.18
  A 0.80 0.80 0.0 0 0 217.71 211.31
  Z"
/>
<path fill="#d7261e" d="
  M 217.71 211.31
  A 0.80 0.80 0.0 0 1 217.66 210.18
  L 218.28 209.49
  A 4.61 4.00 -47.8 0 1 224.34 208.76
  L 225.66 209.96
  A 4.61 4.00 -47.8 0 1 225.53 216.06
  L 224.90 216.75
  A 0.80 0.80 0.0 0 1 223.77 216.81
  L 217.71 211.31
  Z"
/>
<path fill="#ffffff" d="
  M 185.06 245.03
  A 0.90 0.89 -18.3 0 0 184.43 246.28
  Q 185.67 248.99 186.52 251.72
  Q 187.47 254.74 190.65 253.56
  Q 191.00 253.43 191.09 253.80
  L 191.16 254.07
  A 0.72 0.71 72.9 0 1 190.72 254.92
  Q 185.23 256.94 179.86 259.19
  Q 179.48 259.35 179.10 259.18
  A 0.57 0.57 0.0 0 1 178.97 258.22
  L 180.89 256.60
  Q 181.43 256.14 181.16 255.48
  L 174.22 238.36
  A 1.12 1.12 0.0 0 0 173.44 237.70
  Q 172.21 237.42 170.71 237.74
  A 0.54 0.54 0.0 0 1 170.10 237.40
  L 169.99 237.09
  Q 169.79 236.53 170.35 236.33
  Q 176.51 234.06 184.30 230.98
  Q 190.62 228.48 195.60 225.13
  Q 201.18 221.39 206.55 218.04
  Q 207.27 217.59 207.76 218.28
  Q 209.42 220.61 210.90 223.00
  Q 211.38 223.77 210.96 224.57
  Q 210.66 225.14 210.20 224.69
  C 206.53 221.14 204.55 222.01 200.68 224.38
  A 1.41 1.41 0.0 0 0 200.29 226.43
  Q 202.19 228.94 203.45 231.65
  A 1.06 1.05 -44.6 0 0 205.36 231.66
  Q 206.95 228.37 204.63 226.45
  Q 204.21 226.10 204.53 225.66
  Q 205.13 224.82 206.62 225.71
  A 1.75 1.73 -88.3 0 1 207.29 226.43
  Q 209.75 231.22 212.93 235.25
  Q 213.31 235.74 212.82 236.11
  L 212.25 236.53
  Q 211.69 236.95 211.36 236.34
  Q 210.14 234.09 207.40 233.84
  A 1.18 1.18 0.0 0 0 206.30 235.66
  L 209.71 240.95
  A 1.32 1.32 0.0 0 0 211.53 241.35
  C 215.10 239.07 217.68 237.04 216.65 232.09
  C 216.54 231.57 216.65 231.07 216.96 230.64
  A 0.55 0.55 0.0 0 1 217.90 230.73
  L 221.06 237.28
  Q 221.35 237.89 220.77 238.25
  Q 212.29 243.49 204.68 248.64
  Q 204.04 249.08 203.22 249.02
  A 0.55 0.54 18.6 0 1 202.80 248.18
  Q 203.24 247.51 203.95 247.11
  A 1.46 1.46 0.0 0 0 204.45 245.05
  L 194.57 229.81
  Q 193.91 228.80 192.73 229.05
  L 190.77 229.48
  Q 189.42 229.77 189.98 231.03
  L 191.64 234.83
  A 1.34 1.33 51.0 0 1 191.51 236.13
  L 191.18 236.60
  A 0.18 0.17 46.7 0 1 190.89 236.59
  Q 189.79 234.88 188.63 233.79
  C 187.06 232.32 182.62 233.80 181.00 234.44
  A 1.25 1.25 0.0 0 0 180.29 236.04
  L 182.76 242.48
  A 1.03 1.02 -28.3 0 0 184.32 242.94
  Q 187.62 240.54 186.31 236.73
  A 0.30 0.29 -19.4 0 1 186.49 236.36
  L 186.76 236.27
  A 0.46 0.46 0.0 0 1 187.32 236.50
  Q 189.08 239.95 190.80 244.77
  Q 191.46 246.62 191.52 248.29
  Q 191.53 248.67 191.15 248.65
  L 190.85 248.63
  A 0.37 0.36 82.3 0 1 190.54 248.39
  Q 189.14 244.17 185.06 245.03
  Z"
/>
<path fill="#d7261e" d="
  M 88.73 223.27
  A 1.43 1.43 0.0 0 1 90.72 222.87
  L 91.20 223.19
  A 4.39 3.90 33.6 0 1 92.70 228.87
  L 91.63 230.47
  A 4.39 3.90 33.6 0 1 85.82 231.29
  L 85.34 230.97
  A 1.43 1.43 0.0 0 1 84.94 228.99
  L 88.73 223.27
  Z"
/>
<path fill="#ffffff" d="
  M 111.23 254.73
  L 110.72 250.90
  A 1.14 1.13 -85.6 0 0 109.93 249.97
  L 104.17 248.21
  Q 103.60 248.04 103.10 248.35
  Q 101.36 249.44 100.55 251.32
  A 0.84 0.83 -63.4 0 0 100.90 252.38
  Q 101.83 252.91 102.80 253.52
  Q 103.26 253.80 103.20 254.29
  A 0.50 0.50 0.0 0 1 102.59 254.73
  Q 98.99 253.93 95.75 252.53
  Q 93.70 251.64 95.81 250.92
  C 96.78 250.59 97.55 250.72 98.39 249.95
  Q 100.87 247.70 102.69 245.69
  Q 108.70 239.10 114.43 232.89
  A 0.75 0.75 0.0 0 1 115.73 233.34
  Q 116.64 245.17 117.64 256.26
  C 117.76 257.66 118.67 258.46 119.33 259.58
  Q 120.08 260.84 118.69 260.36
  Q 114.09 258.74 109.11 257.03
  Q 105.91 255.94 109.23 255.35
  Q 109.78 255.25 110.31 255.46
  Q 111.39 255.89 111.23 254.73
  Z
  M 105.51 245.55
  A 0.61 0.61 0.0 0 0 105.75 246.55
  L 109.62 247.92
  A 0.61 0.61 0.0 0 0 110.43 247.31
  L 110.06 242.24
  A 0.61 0.61 0.0 0 0 109.00 241.86
  L 105.51 245.55
  Z"
/>
<path fill="#ffffff" d="
  M 157.66 242.96
  Q 158.46 244.57 160.18 245.11
  Q 164.37 246.43 167.90 248.06
  C 171.89 249.90 173.37 254.84 170.73 258.55
  C 167.72 262.77 163.62 262.67 158.99 261.94
  Q 158.41 261.85 157.96 262.22
  L 156.66 263.29
  A 0.70 0.70 0.0 0 1 155.52 262.83
  L 154.55 254.42
  Q 154.32 252.41 155.60 253.98
  Q 156.42 254.99 156.91 256.13
  C 158.18 259.14 161.37 260.58 164.55 260.20
  Q 166.99 259.91 167.50 257.77
  C 167.98 255.75 165.86 254.08 164.15 253.54
  C 161.15 252.58 157.72 251.39 155.21 249.37
  C 151.93 246.72 152.92 239.36 157.10 237.99
  Q 159.26 237.28 161.35 237.22
  C 163.48 237.15 165.59 238.76 167.18 236.49
  A 0.49 0.49 0.0 0 1 168.07 236.72
  L 168.95 244.18
  A 0.49 0.48 -24.6 0 1 168.79 244.60
  Q 168.23 245.09 167.59 244.10
  A 1.44 0.79 42.6 0 1 167.50 243.94
  C 165.86 240.38 162.80 238.22 158.84 239.83
  A 2.29 2.28 65.7 0 0 157.66 242.96
  Z"
/>
<path fill="#ffffff" d="
  M 144.55 251.82
  A 0.46 0.46 0.0 0 0 145.14 251.41
  L 145.80 242.01
  Q 145.84 241.43 145.38 241.09
  Q 144.31 240.30 142.91 239.91
  A 0.61 0.60 12.9 0 1 142.48 239.23
  Q 142.60 238.56 143.29 238.57
  Q 146.66 238.64 150.56 239.20
  Q 151.14 239.28 150.94 239.84
  Q 150.88 240.00 150.79 240.15
  Q 150.60 240.49 150.20 240.50
  Q 147.93 240.53 147.62 244.18
  Q 146.83 253.71 146.24 262.10
  Q 145.99 265.66 144.00 262.70
  L 132.37 245.32
  Q 131.23 243.62 130.95 245.65
  Q 130.11 251.82 129.86 258.80
  A 1.29 1.29 0.0 0 0 130.26 259.78
  Q 131.12 260.59 132.48 260.76
  A 0.64 0.61 80.2 0 1 132.97 261.12
  L 133.19 261.58
  A 0.35 0.35 0.0 0 1 132.87 262.08
  Q 128.87 262.04 124.89 261.48
  Q 122.22 261.10 124.77 260.23
  Q 125.72 259.91 126.73 259.80
  A 0.95 0.94 -0.4 0 0 127.58 258.95
  L 129.15 241.23
  A 1.64 1.64 0.0 0 0 128.47 239.74
  L 126.49 238.32
  Q 124.90 237.18 126.85 237.23
  Q 131.03 237.34 134.83 238.00
  Q 135.42 238.10 135.73 238.61
  Q 139.80 245.44 144.18 251.56
  Q 144.32 251.75 144.55 251.82
  Z"
/>
<path fill="#d7261e" d="
  M 105.51 245.55
  L 109.00 241.86
  A 0.61 0.61 0.0 0 1 110.06 242.24
  L 110.43 247.31
  A 0.61 0.61 0.0 0 1 109.62 247.92
  L 105.75 246.55
  A 0.61 0.61 0.0 0 1 105.51 245.55
  Z"
/>
</svg>
